<svg xmlns="http://www.w3.org/2000/svg" viewBox="0 0 166.5 95.33"><defs><style>.cls-1{fill:#fff}</style></defs><g id="Layer_2" data-name="Layer 2"><g id="Layer_1-2" data-name="Layer 1"><g id="ZEyqNM"><path class="cls-1" d="M118.3 83.62h-.09c-17-.1-34.37-.08-51.13-.07H52.54c-7.74 0-8-.14-10.62-7.31-.43-1.14-.86-2.29-1.32-3.42a18.56 18.56 0 0 0-18.67-11.45A18.58 18.58 0 0 0 5.64 76.08c-.17.86-.29 1.76-.41 2.62-.05.41-.11.83-.17 1.24l-.06.43H0v-7.02c0-6.91 0-13.44.1-20.11 0-1.42 1.24-3.63 2.44-4 3.1-.84 3-2.83 2.93-5.35v-.64c-.22-8.45-.07-18.21 4.52-27 1.23-2.35 2.6-4.55 3.93-6.68.51-.83 1-1.64 1.48-2.41l-2-6.82.6-.06 1.17-.15A7.16 7.16 0 0 1 16.24 0h67.34a31.81 31.81 0 0 1 19.27 6.65c8.57 6.44 17.34 12.91 25.83 19.16l7.81 5.76 1.23.95c2.27 1.78 4.42 3.45 7.57 2.89a3.49 3.49 0 0 1 2.45 1l2.2 1.6c3 2.2 6.11 4.47 9.06 6.86 4.42 3.57 6.91 7.78 7.22 12.16.38 5.45.3 11 .22 16.42 0 2.34-.07 4.68-.07 7v.38L166 81a3.78 3.78 0 0 1-3.18-.12c-.77-.52-1.19-1.51-1.35-3.1-.74-7.7-5.07-13.07-12.52-15.53s-14.33-.58-19.1 5.37c-2.68 3.36-4.3 7.71-5.85 11.91v.12c-1.15 2.97-2.58 3.97-5.7 3.97zm-33.84-1.08c11.22 0 22.55 0 33.76.08 2.78 0 3.83-.72 4.79-3.3v-.13c1.58-4.28 3.23-8.7 6-12.18 5.05-6.3 12.22-8.33 20.19-5.7s12.42 8.26 13.21 16.39c.12 1.25.42 2 .91 2.36a2.49 2.49 0 0 0 2 .09c0-2.23 0-4.44.07-6.65.08-5.38.16-10.93-.22-16.34-.36-5.18-3.92-9.09-6.85-11.46s-6-4.63-9-6.82l-2.2-1.61c-.3-.22-1.23-.91-1.69-.82-3.59.65-6-1.25-8.36-3.08-.4-.32-.8-.63-1.21-.93l-7.81-5.76c-8.45-6.26-17.23-12.68-25.8-19.17a30.83 30.83 0 0 0-18.67-6.45C66.85 1 49.84 1 33.38 1H16.24a7 7 0 0 0-.94.09l-.62.08 1.8 6.09-.12.19c-.5.84-1 1.71-1.6 2.61-1.32 2.12-2.68 4.31-3.89 6.62-4.49 8.65-4.63 18.26-4.41 26.58v.63c.09 2.49.2 5.31-3.67 6.36-.69.19-1.67 1.93-1.7 3C1 59.92 1 66.44 1 73.35v6h3.13c0-.27.08-.54.11-.8.12-.88.24-1.79.42-2.69a19.6 19.6 0 0 1 17.16-15.49 19.61 19.61 0 0 1 19.71 12.09c.46 1.14.9 2.29 1.32 3.44 2.47 6.66 2.46 6.65 9.67 6.66h31.94zm35.26-45.46l-57.93-6.81-.15-1.62c-.08-.81-.16-1.56-.2-2.3-.08-1.4-.15-2.81-.23-4.21-.17-3.33-.35-6.77-.63-10.14 0-.3-.44-.71-.81-1.07l-.24-.24-.17.19a4.13 4.13 0 0 0-.92 1.26 4.66 4.66 0 0 0-.14 1.58v.93c-.21 3.63-.42 7.25-.64 11l-.24 4.07-5.42-.6c-5-.55-9.82-1.09-14.65-1.65a20.31 20.31 0 0 1-2-.38l-1.07-.22-.44-.09v-.44A30.67 30.67 0 0 1 40.8 9a6.36 6.36 0 0 1 5.49-2.63c7.91.08 16 .06 23.74 0h11.4c7 0 12 1.35 16.18 4.35 7.11 5.13 14.21 10.41 20.21 14.9a4.34 4.34 0 0 1 1.82 2.65c.15 1.9.13 3.8.1 5.81v2.43zm-57-7.71l56 6.58v-1.88c0-2 .05-3.87-.09-5.72a3.53 3.53 0 0 0-1.43-1.93c-6-4.49-13.09-9.76-20.19-14.88-4-2.88-8.81-4.17-15.61-4.17H46.26a5.36 5.36 0 0 0-4.7 2.27A29.62 29.62 0 0 0 34.81 26l.65.14a19.51 19.51 0 0 0 2 .36c4.82.56 9.65 1.09 14.64 1.65l4.43.49.17-3c.22-3.76.43-7.39.64-11v-.84a5.36 5.36 0 0 1 .19-1.95 4.83 4.83 0 0 1 1.12-1.6c.17-.19.35-.38.5-.57l.39-.49.39.49a7.53 7.53 0 0 0 .56.58 2.9 2.9 0 0 1 1.12 1.71c.28 3.38.46 6.83.63 10.17.07 1.4.15 2.8.23 4.2 0 .73.11 1.46.19 2.26z"/><path class="cls-1" d="M143.39 95.33a15.5 15.5 0 0 1-.37-31 15.26 15.26 0 0 1 11 4.25 15.66 15.66 0 0 1 4.8 11.11 15.75 15.75 0 0 1-15.26 15.63zm-.35-30a14.5 14.5 0 0 0 .35 29h.14a14.51 14.51 0 0 0 10.11-4.47 14.34 14.34 0 0 0 4.16-10.14 14.59 14.59 0 0 0-4.49-10.4 14.24 14.24 0 0 0-10.27-4zm.3 23.57a9.13 9.13 0 0 1-9.07-9 9.33 9.33 0 0 1 2.73-6.62 8.83 8.83 0 0 1 12.78 0 9.43 9.43 0 0 1 2.67 6.72 9.14 9.14 0 0 1-9.11 8.91zm0-17.37a8.07 8.07 0 0 0-5.63 2.47 8.32 8.32 0 0 0-2.47 5.9 8.13 8.13 0 0 0 8.07 8 8.13 8.13 0 0 0 8.14-7.9 8.24 8.24 0 0 0-2.39-6 7.9 7.9 0 0 0-5.65-2.43zM23.56 95.33A15.34 15.34 0 0 1 13 90.89 15.62 15.62 0 0 1 8.18 80a15.52 15.52 0 0 1 15.49-15.66A15.43 15.43 0 0 1 39 79.76a15.7 15.7 0 0 1-15.26 15.57zm.16-30A14.53 14.53 0 0 0 9.18 80a14.65 14.65 0 0 0 4.48 10.18 14.28 14.28 0 0 0 10.07 4.15A14.69 14.69 0 0 0 38 79.77a14.44 14.44 0 0 0-14.28-14.43zm-.07 23.57h-.15a9 9 0 0 1-6.39-2.78 9.24 9.24 0 0 1 .29-13 8.83 8.83 0 0 1 6.38-2.55 9.4 9.4 0 0 1 9 9.53 9.16 9.16 0 0 1-9.13 8.81zm-.11-17.37a7.81 7.81 0 0 0-5.44 2.28 8.24 8.24 0 0 0-.27 11.62 8 8 0 0 0 5.69 2.47h.13a8.18 8.18 0 0 0 .1-16.36z"/></g></g></g></svg>