<svg xmlns="http://www.w3.org/2000/svg" xmlns:xlink="http://www.w3.org/1999/xlink" width="100%" height="100%" viewBox="0 0 512 281" preserveAspectRatio="xMidYMid meet" ><g style="fill:rgb(219,219,219);fill-rule:evenodd;stroke:rgb(219,219,219);stroke-width:0.1;" id="l1"><path d="M0,0h77v1l-3,1h-3v1c-2,0-2,1-3,2h-1c0,5,1,5,2,7v1l1-1h1l-2-1v-5l3-3h18l6,1l5,1l8,2c0-1-2-1-12-3v-1h-6v-1h-8l-4-1v-1h41l2,1v1h3v1h3l-4-2v-1h23v1l-1,1l-4,2c3,0,3-1,4-2c2,0,2-1,3-2h10v1c-3,0-3,1-5,2c-3,0-3,1-5,2h2v1h-2c-4-1-4,0-11,1c-14,0-14,1-24,2h-10v1c-9,0-9,1-16,2h-9v1c-3,0-3,1-5,3h-1v2l4-4l4-1c9,0,9-1,17-2l20-2h5v3v-1l2-2l5-1l10-1l15-1l21-1h58l11,1l8,1l5,1v1h6l5,1l8,2c0-1-3-1-11-3v-1h-5c0-1-6-1-14-2v-1h-10v-1h-49l-6-3v-1h164c0,6,1,6,2,9c0,5,1,5,2,7l1,4c0,4,1,4,2,7c0,4,1,4,3,10l2,8v3h-2l-1-1v-1c-2,0-2,1-1,1l1,1v1h2l1,1v1h2v1h1l-2-6l-1-4c0-4-1-4-3-10c0-5-1-5-3-11l-3-12l-1-5v-4h164v279h-72v-1c4,0,4-1,6-2l-8,2l-8,1h-5l-8-1l-4-1l-6-2l2,1v1h3l3,1v1l-82,1h-236v-1l5-1h2v-1l-4,1l-8,1h-6l-8-1l-4-1l3,1v1h5v1h-82z"/><path d="M164,0h15l6,3v1h-8l-3-1c0-1-4-1-10-2zm-3,2h1l10,1v1l-3,1h-17v-1l3-1zm22,20h4l1,18c0,18,1,18,2,34v8h-4l-1-18l-2-38z"/><path d="M175,83h23l11,1v1h12l20,2v1h11l10,1l30,3l9,1l7,1v1h10l9,1l8,1v1h-9l-10-1l-8-1v-1h-11l-10-1v-1h-11l-11-1v-1h-12l-22-2v-1h-12v-1h-14l-13-1v-1h-14l-3-1z"/><path d="M176,86h13l12,1v1h13l13,1l12,1l12,1l22,2l10,1v1h11l30,3l9,1l8,1v1h10l8,1l5,1v3h-8l-16-2v-1h-9l-7-1c0-1-9-1-19-2l-9-1v-1h-10l-10-1l-9-1v-1h-10v-1h-11l-22-2v-1h-12l-22-2v-1h-12l-2-1z"/><path d="M340,97h2l8,2v1h-5l-5-1zm-4,1h3v1h-3zm87,0h1l1,1v1h-1l-1-1zm-54,2h8l2,1v1h-3l-7-1zm53,0h1l1,1v2h-4v-1zm-391,10h2v5l-1,12l-1,10l-1,4h-1v-6l1-13zm413,15h4v4h-1l-3-3zm10,9h14v10h-1l-4-2l-2-1l-1-1v-1h-2l-4-4z"/><path d="M469,134h1v11h-1zm-44,55h5v1l-1,1h-1v6h-1c0-5-1-5-2-7zm-328,1h2v1h-2zm328,11h1v18h-1c0-3-2-2-3-2l1,1v1h-1l-4-4c0-2-1-2-4-5v-1h1l3,3v1c5,0,5-1,6-2h1zm-407,6h12v9l-1,20h-1l-10-2l-2-2v-5l1-1h1v-2h-1c0-5-1-5-2-7v-4l2-2h1z"/><path d="M427,218h1l1,2v1c-4,0-4,1-6,2h-1v-2l3-1h2zm-344,2h1l2,1v1l-2,2h-1zm33,0h2v1h-2zm-51,1h5v1h-5zm32,0h2v2h-2zm-35,1h2v1h-2zm146,0h4v1h-4zm6,1h6v1h-6zm-150,1h2v1h-2zm23,0h2v1l-2,1h3v2h-3l-1-2v-1zm25,0h3v1h-3zm111,0h6v1h-6zm178,0h3v1h-3zm50,0h3v1h-3zm-371,1h3l1,5v2h-3v-1l1-4l-1,1h-1zm155,0h6v1h-6z"/><path d="M398,225h1l5,1l4,1v1h3l-2-1v-1h-3v-1h3l7,1l1,1v1l-1,2h3v1c-2,0-2,1-3,2l-2,1c-2,0-2,1-3,2l-4,2h-1v-1l1-1h-2v3l-1,1h-1v-1h1h-4l-1-1l-1-3zm21,0h2v3h-3v-1zm27,0h3v1h-3zm-355,1h1v3h-1zm154,0h9v1h-9zm181,0h2v2h-2zm-169,1h10v1h-10zm15,1h9v1h-9z"/><path d="M424,228h1l1,1v1h-1l-1-1zm-138,1h8v1h-8zm145,0h3l1,2v1c-3,0-3,1-4,5h-1v-2h-2v-1l1-1c2,0,2-1,3-3l-2,2h-2v-1c2,0,2-1,3-2zm-346,1h8v1l-1,1h-6l-1-1zm215,0h5v1h-5zm120,0h2v2h-2zm3,0h1l2,1v1h-2l-1-1zm-108,1h5v1h-5zm149,0h1v2h-1zm-74,1h1v2h-1zm-304,1h2v2l-1,1h-1zm338,0h2l1,1v1l-2,1h-1zm9,0h2l4,2l2,1l1,1v1h2l2,1l1,1v1h-1l-4-2v-1h-5v10h-1l-1-2c0-3-1-3-2-5v1h-1l2,6v2h-1c-2-4-1-2,1,4v3l-5,1h-3l-5-1v-4l1-3l-1,2h-1l-1-2v-1h1v1l1-2h1l1,2v-2l1-2h1c0-2-1-1-2-1v2h-1v-2l2-6h2v-2h2v2q-2,1,1,0h1l1,1c0,2,1,1,2,1l-1-3v-4z"/><path d="M125,235h1v2h-1zm28,0h6l21,1l19,1v1h23l21,1v1h23l23,1l22,1l20,1v1h21l11,1v6h-2l-73-1v-1h-81l-23-1v-1l-22,1h-9z"/><path d="M69,236h1v1l-1,1h-1v-1zm19,0h2v3h-2zm350,3h3l8,4v1c2,0,1-1,1-2l1-1h1v1l-1,1l2-1h1v1c-1,1,0,1,3,4v1l-1,2l-7,7l-2,1c-2,0-2,1-3,2h-3l-1-1l-1-2c0,2,1,2,2,3v1h2v1l-2,1l-3,1h-2v-1l2-1h1l-1-2v-3l1-2h4l-3-1v-2l-1,2h-1v-5v2h-1v-11zm-20,7h1v2h-1zm-1,3h1v2h-1zm-321,2h1v2h-1zm323,2h1v2h-1zm-1,3h1l1,1v1h3l3,1v2h3v-2l6-2h2v5l-2,1h-15l-2-1l-1-1v-1z"/><path d="M93,264h2v1h-2z"/></g><g style="fill:rgb(4,4,4);fill-rule:evenodd;stroke:rgb(4,4,4);stroke-width:0.1;" id="l2"><path d="M346,0h1l1,1l1,6c0,4,1,4,2,6l1,4c0,4,1,4,2,7c0,5,1,5,4,14l1,4c0,4,1,4,2,7c0,3,2,3,4,5v1h-1l-1-1v-1h-2l-1-1v-1h-2l-2-2v-1h1l2,1l-1-1l-1-3l-1-4c0-4-1-4-3-10c0-4-1-4-2-7l-2-8c0-4-1-4-3-10zm-170,4h58v1h-58z"/><path d="M153,5h13v1l-13,1l-14,1h-10v-1l10-1zm86,0h7l8,1l5,1v1h-5l-8-1l-7-1zm-121,3h7v2l-4,4h-1v-1l2-2h1v-2h-5zm143,0h3v1h-3zm-154,1h8v1h-8zm159,0h3v1h-3zm-195,1h2v1c-2,0-2,1-3,2h-1v1h1l1,2l1,3v-1l2-2h1v-2l1-1h3l-4-2v-1h2l2,1v1l10-1h7v1l-7,1l-8,1c-4,0-4,1-9,6h-1l-1-1c0-3-1-3-2-4v-2z"/><path d="M98,10h6v1h-6zm172,0h3v1h-3zm4,1h3l3,1v1h-3l-3-1zm7,2h2v1h-2zm19,0h2l6,3l1,1v1l-4,1h-2v-1c2,0,2-1,3-2h-2l-4-2zm-16,1h2v1h-2zm13,0h2v1h-2zm-3,1h2v1h-2zm-176,1h1v1l-1,1h-1v2l-2,2h-1v-1l1-2zm171,0h3l1,1v1h2l2,1v1l3-1h2v1h-2c0,2,2,2,4,3l1,1v1h-1l-6-3l-1-1v-1h-2l-4-2c-1-1-1,0-2,1h-1v2l-3,3h-1c0,2,2,2,14,8l1,1v1h2l2,1l1,1v1h-1l-6-3l-1-1v-1h-2l-10-5l-1-1v3h-1v-4l4-4h1v-2l1-1h1z"/><path d="M310,18h1l4,2l1,1v1h-1l-4-2l-1-1zm-124,2h45v1h-43v12h-1l-1-12zm-116,1h1v1l-2,2h-1v-1zm101,0h12l1,7v1h-1l-1-1v-6h-11zm64,0h9v1h-9z"/><path d="M158,22h12v1l-5,1c-3,0-3,1-7,3h-1v-1l1-1l2-1q2,0-2-1zm89,0h6v1h-6zm70,0h1l1,1v1h-1l-1-1zm-173,1h9v1l-4,4h-1v2l-1,1h-1v2l-1,2h-1v-2l1-2l1-1h1v-2l3-3q1,0-6-1zm111,0h5l5,1l4,1l3,1v1h-3l-4-1v-1h-5l-5-1zm-143,1h1v1l-1,1l5-1l14-1h9v1l-9,1h-14v1c-6,0-6,1-7,2h-1v-1l1-2z"/><path d="M320,24h1l4,2l2,2v1h-1l-2-1l-1-1v-1h-2l-1-1zm-253,1h1v1l-1,1h-1v-1zm239,0h1l2,1l1,1v1h-1l-2-1l-1-1zm-151,2h1v1l-2,2h-1l2,8l1,5v16l-1,5l-1,3h-1v-3l1-5h1c0-16-1-16-2-21c0-4-1-4-2-5v1l-1,1h-1v3l-1,2h-1v4l-2,6h-1v-3l1-4l2-6l1-2l1-1h1v-2zm118,0h2v1h-2zm-208,1h1v1l-1,1h-1v2l-1,1h-1v2l-2,2h-1v-1l1-2l1-1h1v-2z"/><path d="M276,28h2l4,2v1h-2l-4-2zm35,0h1l2,1l1,1v1h2l2,1l2,2v1h2l1,1v1h-1l-2-1l-1-1v-1h-2l-1-1v-1h-2l-2-1l-2-2zm17,1h1l1,1v1h-1l-1-1zm-220,1h1v1l-1,1h-1v-1zm175,1h2l8,4l1,1v1h-2l-1-1v-1h-2l-4-2l-2-1zm48,0h1l2,1l1,1v1h2l1,1v1h2l1,1v1h2l2,2v1h-1l-2-1l-2-2v-1h-2l-2-1l-1-1v-1h-2l-2-2zm-225,2h1v1l-1,2l-2,2h-1v-1l1-2zm77,1h1l1,13l1,19v13h-1l-1-13l-1-19z"/><path d="M143,36h1v2l-1,3h-1v4l-1,2h-1v-3l2-6zm152,1h1l6,3l2,2v1h-1l-4-2l-1-1v-1h-2l-1-1zm10,0h1l2,1l1,1v1h2l1,1v1h2l1,1v1h2l1,1v1h2l3,3v1h-1l-1-1v-1h-2l-1-1v-1h-2l-1-1v-1h-2l-1-1v-1h-2l-1-1v-1h-2l-2-2zm20,0h1l1,1v1h2l1,1v1h2l2,2v1h-1l-2-1l-1-1v-1h-2l-3-3zm-223,2h1v1l-1,2l-1,1h-1v-1l1-2zm-45,1h1v1l-1,2l-1,1h-1v2l-1,1h-1v-1l2-4zm131,0h1v12h-1z"/><path d="M346,41h1l1,1v1h-1l-1-1zm-41,2h1l1,1v1h-1l-1-1zm44,0h1l2,1l3,3v1h-1l-1-1v-1h-2l-2-2zm-250,1h1v1l-1,2l-1,1h-1v-1l1-2zm236,0h1l2,1l3,3v1h-1l-1-1v-1h-2l-2-2zm-27,1h1l1,1v1h-1l-1-1zm3,2h1l2,2v1h-1l-2-2zm-259,1h1v1l-2,4l-1,1h-1v-1l2-4zm87,1h1v3h-1zm203,0h1l1,1v1h2l3,3v1h-1l-1-1v-1h-2l-3-3zm-192,1h1v6h-1zm165,0h1l2,1l3,3v1h2l1,1l1,1v1h-1l-1-1v-1h-2l-2-2v-1h-2l-2-2zm9,0h1l2,1l3,3v1h-1l-1-1v-1h-2l-2-2z"/><path d="M95,51h1v1l-3,6l-1,1h-1v2l-1,1h-1v-1l2-4l1-1h1v-3zm48,1h1v4l-1,8l-1,4h-1v-4l1-8zm-5,1h1v3h-1zm-90,2h1v2l-1,1h-1v2l-4,8l-2,4h-1v-2l7-14zm283,0h1l1,1v1h2l3,3v1h-1l-1-1v-1h-2l-3-3zm19,0h1l1,1v1h-1l-1-1zm16,0h1l1,1v1h2l2,2v1h-1l-2-1l-3-3zm-229,2h1v4h-1zm216,0h1l3,3v1h2l2,2v1h2l3,3v1h-1l-1-1v-1h-2l-3-3v-1h-2l-4-4z"/><path d="M149,58h1v5h-1zm40,0h1l1,13v11h7v1h-21v-1c13,0,12-11,12-24zm137,0h1l2,2v1h-1l-2-2zm47,2h1l1,1v1h2l2,2v1h2l2,2v1h2l3,3v1h-1l-2-2v-1h-2l-1-1v-1h-2l-2-2v-1h-2l-3-3zm-43,1h1l2,2v1h-1l-2-2zm9,0h1l3,3v1h2l3,3v1h-1l-2-2v-1h-2l-4-4z"/><path d="M136,63h1v5l-1,2l6-1h1v2h9l1,1v1h-4l-6-1v-1c-7,0-7,22-6,22l1,5v3h-1l-1-3l-1-5v-25zm164,0h4l1,1v3h-1l-1-2v-1l-3,1h-1v-1zm34,1h1l3,3v1h-1l-3-3zm-247,1h1v2l-2,4l-1,1h-1v-2l2-4zm211,1h1v2h-1zm-146,2h1v2h-1zm151,0h1v2l-1,3l-1,2h-1v-2l1-3z"/><path d="M339,68h1l2,2v1h5l2,1l5,5l1,2v1h-1l-1-1c0-2-1-2-4-5v-1h-2v-1h-10v1c-2,0-2,1-5,4h-1v-1l4-4l2-1c4,0,2-2,2-3zm28,0h1l2,2v1h2l3,3v1h2l2,2v1h2l4,4v1h2l2,2l2,2v1h-1l-2-2v-1h-2l-3-3v-1h-2l-4-4v-1h-2l-2-2v-1h-2l-4-4zm-70,1h1v2l-1,3l-1,2h-1v-2l1-3zm52,0h1l4,4v1h-1l-4-4z"/><path d="M389,72h1l2,2v1h-1l-2-2zm-234,1h2v1h-2zm-10,1h5v1h-5zm210,0h1l5,5l1,1v1h2l3,3v1h2l6,6v1h-1l-3-3v-1h-2l-4-4v-1h-2l-1-1v2h-1c0-4-1-4-6-9zm-317,1h1v2l-1,3l-2,4h-1v-2l1-3zm44,0h1v2l-1,2h-1v3c-2,6,1,6,5,7l2,1l2,2v1h-1l-4-2v-1h-3v-1h-9v-1c5,0,5-3,7-9z"/><path d="M141,75h2v1l-1,1l-2,1h-1v-1zm11,0h3v1h-3zm10,0h2l6,3l5,5v1h2v1h10v1h-10l-3-1c0-2-1-2-4-5v-1h-2l-4-2l-2-1zm231,0h1l2,2v1h-1l-2-2zm-236,1h2v1h-2zm3,1h2l3,1l2,1l2,2v1h-1l-1-1v-1h-2v-1h-3l-2-1zm134,0h1v2l-1,2h-1v-2zm103,1h1l2,2v1h2l2,2v1h2l3,3v1h-1l-1-1v-1h-2l-3-3v-1h-2l-3-3zm-259,1h1v2h13v1c-13,0-13,4-11,4v1c-2,0-2,2-1,2c0,1,3,1,9,2v1h12v1h-12l-7-1l-2-1l-2-2z"/><path d="M329,80h1v3h-1zm-31,1h1v2l-1,3l-1,2h-1v3q-1,0,3,1v1h-6v-1l1-1h1v-3l1-2h1v-3zm-144,1h6v1h-6zm138,0h1v2l-1,3l-1,2h-1v-2l1-3zm-130,1h4l6,1v1h-6l-4-1zm40,0h8l12,1l8,1v1h-8l-12-1l-8-1zm126,1h1v9h-1zm28,0h1v6h-1z"/><path d="M34,85h2v1l-2,1h-1v2l-1,2h-1c0,8,1,8,4,11v1h-1l-3-3v-1c-2,0-2,1-5,4l-2,1h-1v3h2v1h-3v-4l3-3c2,0,2-1,4-3h1v-7l2-4zm10,1h10v1h-10v3h-1v2l2-2l2-1h6v1c-5,0-3,1-1,5v5h-1c0-5-1-5-2-7v-1c-4,0-4,1-5,2c-1,0-1,2-2,5l-1,1h9l1,1v3l-2,4l-1,1h-1v-1l2-4h1v-3c-9,0-9,7-8,7l4,1v1q-3,1,5,1v-1l5-1h3v1l-3,1l-4,1h-9l-2-2v-2h-2v-4l1-6l2-8l1-3z"/><path d="M148,86h9v1h-9zm43,0h10v1h-10zm42,0h8v1h-8zm129,0h1l1,4l1,7v5h4l-1-1v-2l1-1h1l7,1v1h-7l-1-1v2h4v1l-4,1c-4,0-3,2-3,4h3v1h-3v4h-1v-4h-2v-1c2,0,2-2,1-2l-1-2v-1c1-5,0-5-1-12zm-304,1h11v1h-11zm101,0h6v1h-6z"/><path d="M205,87h10v1h-10zm39,0h8v1h-8zm-78,1h4v2l-1,1l-2,1h-4v-1l6-2h-3zm12,0h8v1h-8zm40,0h9v1h-9zm36,0h8v1h-8zm45,0h3l3,1l2,1l3,3v1h-8v-1h6l-1-1c0-1-2-1-8-3zm93,0h1l2,2v1h2v1h-2l-3-3zm-218,1h1v2l-3,3h-1v-1l1-1h1v-2z"/><path d="M190,89h8v1h-8zm41,0h9v1h-9zm34,0h7v1h-7zm146,0h1l1,1v1c2,0,2-1,3-2h3l1,1v1h-1v-1h-3l3,1v2l-1,2h-1l-1-1v-1h-2l-3-3zm6,4l-2-2zm-362-3h2l2,1v1h-2l-2-1zm147,0h9l11,1l9,1v1h-9l-11-1l-9-1zm41,0h9l12,1l9,1v1h-9l-12-1l-9-1z"/><path d="M276,90h14l2,1v1h-9l-7-1zm79,1h1v1l-1,1h-1v-1zm-295,1h1l2,1l6,6v5l-2,2h-1v-1l1-1h1v-4h-1c0-2-1-2-3-4v-1h-2l-2-2zm31,1h1l7,7c0,2,1,2,6,7c0,2,1,2,4,5c0,2,1,2,4,5v1h-1l-4-4c0-2-1-2-5-6c0-2-1-2-6-7c0-2-1-2-6-7zm143,0h8v1h-8z"/><path d="M275,93h8v1h-8zm102,0h1l3,3v1h2v1h4v1h-3l5,5v1h4v1h-6v-1l1-1l-1,1h-8v-1h8l-10-10zm21,0h1l2,2v1h2l4,4v1h2v1h-6v-1c3,0,1-2,1-3h-2l-4-4zm-153,1h8v1h-8zm41,0h8v1h-8zm26,0h6v1h-6zm17,0h2v1h-2z"/><path d="M256,95h8v1h-8zm42,0h7v1h-7zm22,0h7v1h-7zm13,0h3l6,1v1h-2v2h2v1h-7v-1h4l-3-1v-1h-7v-1zm86,0h7l1,6v1h-1l-1-1c0-2-1-2-2-3c0,2,1,2,2,3v2h-1c0-2-1-2-2-3v1l-2,2h3v1h-5v-2l1-1h1v-2h1c0-2-1-2-2-3zm-256,1h3v1l-2,1h-4v-1zm103,0h8v1h-8zm41,0h8l10,1l7,1v1h-7l-10-1l-8-1z"/><path d="M346,96h4v1h-3l3,1v1h-3l-4-1v-1zm-70,1h9l7,1v1h-7l-9-1zm-120,1h3v1h-3zm-9,1h7v1h-7zm148,0h7v1h-7zm56,0h2l1,1v1h6v1h-6l-2-1v-1l-1,1h-6v-1zm39,0h4v1h-4zm-85,1h7v1h-7zm91,0h6v1h-6zm-82,1h7v1h-7zm10,1h6v1h-6z"/><path d="M376,102h4v1l-2,1h-6v-1zm34,0h6v1h-6zm18,0h1l1,1v1h2v1h6v1h-6l-8-1v-1l5-1h-1zm-96,1h6l9,1l6,1v1h-6l-9-1l-6-1zm-297,1h1v7h-1q0-1-1,5h-1v-7h2zm104,0h1v2h-1zm-75,2h1v1l-1,1l-2,1h-2v-1zm291,0h7v1h-7zm40,0h6v1h-6z"/><path d="M442,106h5l1,1v1h-1l-5-1zm-302,1h1l5,10v1h-1l-1-1l-4-8zm263,0h6v1h-6zm-376,1h5v1l-1,12h-1v-12h-3zm344,0h6v1h-6zm39,0h6v1h-6zm39,0h1l5,5v1h2l1,1v1h2l1,1v1h2l3,3v1h-1l-1-1v-1h-2l-1-1v-1h-2l-1-1c0-1-2-1-6-2v-1l2-1h-1l-4-4zm-359,1h5l4,1l1,1v1h-1l-4-1v-1l-5,1h-3v1c-2,0-2,1-5,4h-1v2l-1,2h-1l1,7v3h1c0,2,1,2,4,5c0,1,2,1,6,2v1l4-1h3v1l-3,1h-4l-4-1l-2-1l-6-6l-1-3v-8l1-3l6-6l2-1z"/><path d="M379,109h5v1h-5zm39,0h5l16,2l5,1v1h-14l-3-1v-1h-4v-1h-5zm-380,1h1c0,7,4,3,10,3v1l-6,1q-1,0,2,1l3,3v2h-1c0-2-1-2-2-3v-1c-4,0-4,1-5,3h-1l1,2v1l-1,7h1v2h2v1h-2l-1-1c0,3,1,3,5,4v-1l1-1h1v-2l1-2h1v2l-1,2l-3,3h-2l3,1v1h-3l-2-1l-1-1q-1-2-1,4l-1,1h3v1c-3,0-3,1-7,5h-1v2l-2,2h-1v-2l3-3h1v-2h-2l-2-2v-1l-1,1h-1v-2l1-6h1c1,6,1,3,2-4h1v7l-1,4l-1,1h2l1,1v1c2,0,2-2,3-4h1v-15l1-7h1l-1-1z"/><path d="M385,110h7l8,1l6,1v1h-6l-8-1l-7-1zm-284,2h1l3,3l2,4v3h-1c0-3-1-3-2-5c0-2-1-2-3-4zm306,1h6v1h-6zm39,0h5v1h-5zm-395,1h2v1h-2zm363,0h5v1h-5zm22,0h2v1h-2zm-382,1h2l6,3l2,2v1h-1l-1-1v-1h-2l-6-3zm312,0h1v9h-1zm55,0h5v1h-5zm18,0h2l2,1v1h5v1c-8,0-8,3-7,3l1,2v1h8l1,1v8h19l1,1v1h-1q0-1-1,10h2l2,1v1h-5h2l8,4v1h-2l-3-1l-2-1l-1-1v-1h-2l-2-1l-1-1v-1h-2l-3-3v-1h-2l-7-7v-1h-2l-2-2v-2l1-4c-4,0-1,3-1,4h-1l-6-6l-1-2c0-3-6-3-10-4v-1h11h-1zm21,25h1l4,2l2,1l1,1v-10h-15l2,2v1h2l1,1v1h2zm5,4v1h1v-1zm2,1v1h1v-1z"/><path d="M449,118h3l3,1l2,1v1h-2l-6-2zm-417,1h1v8h-1zm81,0h1l4,4c0,2,1,2,3,4v1h-1l-4-4c0-2-1-2-3-4zm33,0h1l1,1l2,4v1h-1l-1-1l-2-4zm-105,1h3l1,1v3h-1c0-2-1-2-3-3zm24,1h1l3,3v1h-1l-3-3zm-36,1h1v8h-1zm431,0h1l6,3l2,2v1h2l2,1l3,3v1h-1l-2-2v1h1l4,4c0,2,1,2,2,3v1h-1l-3-3c0-2-1-2-6-7l-1-1v-1h-2l-1-1v-1h-2l-1-1v-1h-2l-1-1z"/><path d="M467,122h1l2,2v1h-1l-2-2zm-419,1h1v5h-1zm117,1h6l5,1v1h-5l-6-1zm306,1h1l2,2v1h2l5,5v1h-1l-3-3v-1h-2l-4-4zm-365,1h1v3l-2,4l-2,2h-1v-1l1-1h1v-2l1-2h1zm44,0h1l1,1v1h-1l-1-1zm28,0h4v1h-4zm5,1h5v1h-5zm-139,1h1v2l-1,2h-1v-2zm24,0h1v2l-3,3l-6,3l-3,1l-4,1h-5v-1c5,0,5-1,9-2c3,0,3-1,5-2c2,0,2-1,6-5z"/><path d="M189,128h4v1h-4zm-68,1h1l4,4v1h-1l-4-4zm31,0h1l2,2l1,2c0,2,1,2,3,4c0,2,1,2,2,3c0,2,1,2,2,3l1,2v1h-1l-2-2c0-2-1-2-2-3c0-2-1-2-2-3c0-2-1-2-2-3c0-2-1-2-2-3l-1-2zm43,0h4l6,1l10,2v1h-5l-5-1v-1h-6l-4-1zm21,4h4v1h-4zm261,0h1l3,3v1h2l6,6c0,2,1,2,2,3v1h-1l-4-4l1,7v1h4v-3h1c0,3,1,3,4,6v1c3,0,3-2,2-2l-1-1v-1h1l2,2l2,4v2h-1l-1-2v-1h-3c0,5,4,5,5,6v-2h1c0,3,1,3,2,4v1c-1,1,0,1,1,2v17l-1,1h-1v-2c1-16-2-16-7-17v-1l7-1h-1l-2-1v-1h-8v-1c3,0,3-5,2-5c0-2-1-2-2-3v-1h-6l-4-1v-1h2l-1-1l-1-2v-1h1q0,1,1-4c1-1,0-1-1-2v-1h-2l-5-5z"/><path d="M221,134h4v1h-4zm261,0h1l5,5l5,5v1h-1l-5-5l-5-5zm-356,1h1l4,4c0,2,1,2,5,6c0,2,1,2,2,3v1h-1l-4-4c0-2-1-2-4-5c0-2-1-2-3-4zm101,0h4l10,2v1h-5l-5-1l-4-1zm-128,1h2v1h-2zm143,2h4v1h-4zm5,1h4v1h-4zm-200,1h8v1h-8zm22,0h9v1h-9z"/><path d="M252,140h4v1h-4zm131,0h10v1h-10zm-342,1h5v1h-5zm40,0h6v1h-6zm176,0h4v1h-4zm140,0h7v1h-7zm83,0h4v1c-2,0-1,2-1,3h-1l-1-1l-1-2zm-391,1h4v1h-4zm173,0h4l5,1l4,1v1h-4l-5-1l-4-1zm145,0h6l8,1l4,1v1h-4l-8-1l-6-1zm-313,1h5l3,1v1h-4l-4-1z"/><path d="M366,144h1v7h22v1h-22v4h-1zm-262,1h2v1h-2zm173,0h3v1h-3zm150,0h4v1h-4zm-319,1h2v1h-2zm173,0h4v1h-4zm151,0h4v1h-4zm61,0h1l3,3v1h-1l-3-3zm-382,1h2v1h-2zm53,0h1l2,2v1h-1l-2-2zm122,0h4v1h-4zm151,0h3v1h-3zm37,0h2v1h-2zm-359,1h2l6,2l2,1v1h-2l-6-2l-2-1z"/><path d="M291,148h3v1h-3zm150,0h4l4,1l3,1v1h-3l-5-1l-3-1zm-415,1h1l1,6v-2h1v2l-1,3l-1,2h-1zm269,0h4l5,1l4,1v1h-4l-5-1l-4-1zm184,0h3v1h-3zm-341,1h1l4,4c0,2,1,2,2,3v1h-1l-3-3c0-2-1-2-3-4zm29,1h1l2,2v1h-1l-2-2zm286,0h2v1h-2zm-144,1h3v1h-3zm85,0h6v1h-6zm63,0h2v1h-2zm22,0h2v1h-2zm-351,1h2l2,1v1h-2l-2-1z"/><path d="M314,153h3v1h-3zm89,0h5v1h-5zm57,0h2v1h-2zm22,0h3v1h-3zm-164,1h4l5,1l4,1v1h5l4,1v1h-4l-10-2l-8-2zm92,0h5v1h-5zm53,0h3l9,3l2,1v1h-3l-3-1l-2-1v-1h-3l-3-1zm23,0h6v1h-6zm-316,1h1l3,3l1,2v1h-1l-2-2c0-2-1-2-2-3zm247,0h4v1h-4zm5,1h5l4,1l3,1v1h-3l-4-1v-1h-5z"/><path d="M341,159h3v1h-3zm24,0h1v2h7l3,1l2,1v3l-2,2l-3,1h-7v-2l1-1h1v1l-1,1l6-1c3,0,3-1,4-3h-1l-3-1v-1l-5,1h-1l-1-1v4h-1zm71,0h2v1h-2zm42,0h2l9,3l3,1l1,2c0,4,1,4,3,10v2h-1l-1-2l-2-6c0-4-1-4-3-5v-1h-3l-6-2l-2-1zm-332,1h1l3,3c0,2,1,2,2,3v1h-1l-3-3v-1h-2v-1l1-1l-1,1h-1v-1z"/><path d="M346,160h3v1h-3zm94,0h2v1h-2zm-415,1h1v2l-1,3l-1,2h-1v-2l1-3zm326,0h3v1h-3zm92,0h2v1h-2zm-87,1h3v1h-3zm90,0h3l3,1l2,1v1h-2l-6-2zm-369,1h20l5,1l3,1v1h-3l-5-1v-1c-20,0-20,1-25,2h-3v-1l3-1zm99,0h1l2,2c0,2,1,2,3,4c0,2,1,2,4,5c0,2,1,2,2,3v1h-1l-3-3c0-2-1-2-3-4c0-2-1-2-3-4c0-2-1-2-2-3z"/><path d="M360,163h4v1h-4zm-294,3h2v1h-2zm40,0h2v1h-2zm351,0h2v1h-2zm-394,1h2v1l-8,4c-2,0-2,1-3,2h-1v-1l2-2zm46,0h2l8,4l2,2v1h-1l-2-1l-1-1v-1h-2v-1h-3l-2-1l-1-1zm312,0h13v1h-13zm39,0h2l2,1v1h3l10,5l4,2l1,1v1h-1l-12-6v-1h-3l-4-2l-2-1zm37,0h1v3h-1z"/><path d="M152,168h1l3,3c0,2,1,2,2,3v1h-1l-3-3c0-2-1-2-2-3zm263,0h5v1h-5zm21,0h4l4,1l6,2l8,4l2,2v1h2l4,4l7,7v1h-1l-7-7l-2-2v-1h-2l-2-2v-1h-2l-1-1v-1h-2l-4-2v-1h-3l-3-1v-1h-4l-4-1zm-414,1h1v2h-1zm342,0h1v5l-1,5h-1v-5zm47,0h3v1l-3,1h-3v-1z"/><path d="M405,171h2v1l-6,3c-2,0-2,1-3,2l-2,1c-2,0-2,1-3,2h-1v-1l2-2c2,0,2-1,3-2zm93,0h1l2,6c0,3,1,3,2,5v1h-1l-1-1l-2-4l-1-4zm-477,1h1v1l-2,2c-1,0-1,2-2,6h-1v-5zm30,2h1v1l-4,4h-1v-1zm34,0h7v1h-7zm37,0h1l4,4v1h-1l-4-4zm301,0h9v1h-9zm-345,1h5v1c-5,0-5,1-9,2h-2v-1l2-1z"/><path d="M95,175h5v1h-5zm321,0h4v1l-8,2h-2v-1l2-1zm19,0h4l4,1l3,1l8,4l1,1v1h-1l-8-4c0-1-3-1-11-3zm-334,1h3l3,1l2,1v1h-2l-6-2zm57,0h1l2,2v1h-1l-2-2zm249,2h2v1l-2,1h-2v-1zm76,0h1l2,1l1,1v1h-1l-2-1l-1-1zm-355,1h1l4,4v1h-1l-4-4zm60,0h1l4,4c0,2,1,2,5,6v2h-1l-1-1c0-2-1-2-6-7c0-2-1-2-2-3z"/><path d="M161,180h1l2,2v1h-1l-2-2zm242,0h1v1l-1,1c-2,0-2,1-3,2c-2,0-2,1-3,2c-2,0-2,1-7,6l-1,1h-1v2l-2,2h-1v2l-1,1h-1v2l-2,4l-1,2h-1v-2l4-8l2-2h1v-2l9-9c2,0,2-1,4-3zm94,0h1c0,2,1,2,2,3c0,2,1,2,3,4v1h-1l-4-4l-1-2zm-454,1h2v1l-2,2h-1v2l-2,2h-1v2h-1v-2l1-1h1v-2l2-2h1zm20,0h1v1l-1,1l-2,1h-1v-1l1-1zm51,0h2l2,2v1h-1l-2-1l-1-1z"/><path d="M362,181h1v3h-1zm27,0h1v1l-5,5l-1,1h-1v2l-3,3h-1v-1l1-1h1v-2zm99,0h1l2,1l3,3v1h-1l-1-1v-1h-2l-2-2zm-32,2h1l1,1v1h-1l-1-1zm-398,1h1v1l-4,4l-2,1h-1v-1l2-2c2,0,2-1,4-3zm61,0h1l3,3v1h-1l-3-3zm45,0h1l3,3c0,2,1,2,2,3v1h-1l-3-3c0-2-1-2-2-3zm-148,1h1v13h-1zm118,1h1l3,3v1h-1l-3-3zm227,0h1v3h-1z"/><path d="M460,186h1l8,8c0,2,1,2,2,3v1h-1l-3-3c0-2-1-2-6-7l-1-1zm35,0h1l2,2v1h2l2,2v1h-1l-1-1v-1h-2l-3-3zm10,0h1v2l-1,4h2v18c-2,0-1,2-1,4l-2,1h-1v-1l1-1h1l-1-1v-3h2v-16h-3v-1l1-4zm-421,2h10v1l-10,1h3l1,1v1h-1l-3-1v-1h-5l3,1v1h-3l-3-1l2,1v1l-2,1c-3,0-3,1-4,2c-2,0-2,1-4,3h-1v-1l4-4h-1v1c-2,0-2,1-3,2h-1v-1l2-2l2-1h1l2,1l-1-1v-1l4-2l3-1zm-10,5h2v-1h-2z"/><path d="M124,188h1l4,4c0,2,1,2,3,4v1h-1l-4-4c0-2-1-2-3-4zm300,0h7l6,1l3,1v1l-3,1h-2v-1q2,0-4-1v-1h-7zm-329,1h4v1l-4,1h-3v-1zm323,0h5v1l-5,1h2v1h-2l-3-1v-1zm-318,1h2v1h-2zm260,0h1v3h-1zm-323,1h1v1l-1,2l-1,1h-1v-2zm13,0h2v1l-4,4h-1v-1l2-2h1zm47,0h2v1h-2zm41,0h1l1,1v1h-1l-1-1zm274,0h2v1h-2l2,1v1l-4,2h-2v-1l4-2h-2v1l-2,1h-1l1,1v1c-1,4,0,4,1,5v2h-2h3v1l-1,1l2-2h1l7,7v1l4-1h1v-14h1v14l-2,2h-4l-8-8l1,1v2h-1q-1-2,0,0v1l1-1h1v1l-1,1l1-1h1v1l-1,1l1-1h1v1l-1,1l1-1h1v1l-1,1h2l4,4v7l-1,1l-4,1h-4v-1l2-1c3,0,2-1,2-3h1c0,2,2,1,3,1l-1-1v-3l1-1l-1,1h-1v-1h1h-2v-1l1-1l-1,1h-1v-1l1-1l-1,1h-1c0-2-1-2-5-6v-1v2h-1l-2-2v-1h-2v-1h2l1,1v1h1c0-2-1-2-5-6v-1h1l2,2l-1-2v-4l1-1c-2,0-2,1-5,4h-1l1,1v1l-3,3h-1v-1l2-2h1v-1l-4,4h-1c0,2,1,1,2,1v1l-1,2l-1,1h-1l-1-1l1,1v2h-1l-1-2v-1l2-4l3-3h1v-2l2-2c2,0,2-1,4-3c2,0,2-1,3-2zm-16,17v-1h-1v1z"/><path d="M425,191h1l1,1v21h1c0,4,1,4,2,6v-3h2v2l-2,2h-2v-3l-1,3h-2l-2-1v-3h1l1,1v2l1-2h1l-1-3l-1-22zm4,0h1v1l-1,12h-1v-12zm44,0h1l2,2l1,2v1h-1l-2-2l-1-2zm-383,1h1v2h-1zm15,0h2l2,1l1,1v1h2l8,8v1h-1l-1-1v2h-1v-2l1-1l-1,1h-1v-1h1h-3c-1-1-1,0-4,3h-1l1,1v1h-1c-1-1-1,0-2,1h-1v2l2-2h1v1l-2,2h-1l-1-1l1,1v2l-1,1c-1,0-1,2-2,5h-1v-4l1-1h1v-2l-2,2h-1v2l-2,2l-1,1h-1c0,4,3,4,6,5v-1l5-1l6-1h-6v-1h14v1q-3,1,3,1l1,1l1,11v3h-1l-1-3v-11h-11h3l2,1l1,1v2h-1c0-2-2-2-7-3v-1l-1,2h-8h2v1h-4l-5-1l-1-2v-3l4-4h-1v1l-3,3h-1v-1l3-3h1v-2l1-1h1l1,1l-1-1v-1h1l1,1l-1-1v-1h1l1,1l-1-1v-1h1l1,1c0-2-1-2-2-3v1l-4,4h-4l-2-2l-1-6v-7l1-1h1v14h1v1c4,0,4-1,8-5h1c1,1,1,0,3-2h1v-2l-3,3h-1v-1l3-3h-1l-1-1v-1h-2l-2-1v-1h-4v-1h4l4,2l3,3v1l2-2h1c2,1,2,0,3-1h1l2,1v-1h-1l-2-2v-1h-2v3h-1v-3l1-1l-1,1h-1v-3c-2,0-1,1-1,2h-1l-2-1v-1l2-1l-2,1h-2v-1zm0,20v-1h-1v1zm0-4l4-4h1v-2l-1,1h-1v2z"/><path d="M170,192h1l4,4c0,2,1,2,4,5c0,2,1,2,8,9v1h2l3,3v1h2l4,2l2,1v1h-2l-6-3l1,1v1h2l2,1v1h3l3,1v1h4v1h-4l-4-1l-8-4l-4-4v-1c1-1,0-1-9-10c0-2-1-2-6-7c0-2-1-2-2-3zm21,24h1l-2-2v-1h-2l1,1v1h2zm252-24h2l1,1v1l-1,1l2-1h1v1l-1,1l1-1h2l9,9c0,2,1,2,2,3l3,6v2h-1l-1-2v-2v4h-1l-1-2v-2l1-2l-1,1h-1v-1c1-2,0-2-1-3l1,1v1h-1l-1-1v-1l1-2l-1,2h-1v-2l1-1l-1,1h-1v-1l1-1l-1,1h-1v-1l1-1l-1,1h-1v-1c1-1,0-1-2-3v-1h-2v4l-1,1h-1c0,2,1,2,1,1l2-2h1v1l-3,3h-1l-1-1l1,1v1h-2h1v2l2-2h2l4,4l1,2v1h-1l-1-1c0-2-1-2-3-4v-1c-2,0-2,1-4,3h-1v2l-2,2c-1,0-1,2-2,5h-1v-3l1-2l1-1h1v-2l3-3h-1v1l-5,5h-1v2l-3,3h-1c0,4,3,4,6,5l2,1v1h-4l-4-1l-2-2v-2l1-2l3-3h-1v1l-3,3h-1v-1l4-4h1v-2h1l1,1l-1-1v-1h1l1,1l-1-1v-1h1l1,1l-1-1v-1h1l1,1l-1-1v-1h1l1,1v-1l1-2l-1,1h-1c-1-1-1,0-6,5h-4l-2-2v-4h1c0,4,1,4,5,5v-1l5-5h1l1,1l-1-1v-1h1l1,1l-1-1v-2c1-1,0-1-1-2v-1h-2l-2-1v-1h-4v-1h4l4,2l3,3v1l-1,2l1-1h1v-2l1-1h1c0-4-1-4-5-6v-1l2-1l-2,1h-2v-1zm6,4h-1v1h1z"/><path d="M88,194h1v25l-1,1h-1v-1zm52,0h1l2,2l5,10c0,3,1,3,3,4v1h-2v2h-1l-1-4c0-3-1-3-4-9c0-2-1-2-2-3l-1-2zm62,0h1l1,1v1h2l2,2v1h-1l-2-1l-3-3zm176,0h1v1l-1,1h-1v2l-1,1h-1v-1l1-2zm-19,1h1v2h-1zm-313,2h1v1l-1,1h-1v-1zm34,0h2v1h-2zm6,0h1v13l-1,2h-1v-2z"/><path d="M417,197h4v1c-4,0-4,1-6,2c-2,0-2,1-4,3h-1v-1l3-3zm-384,1h1v2h-1zm30,0h1v1l-3,3h-1v2l4-4h1l2,1l1,1v1l1-1h1v1l-1,1l1-1h1c0,2,0,1,1-2l1-1h1v1c-1,3,0,3,7,10v1h3v1h-3l-8-8v-1h-1l2,2c0,2,1,2,4,5v1h-1l-3-3v-1h-1l4,4v1h-1l-4-4v1h1c0,2,1,2,2,3v1h-1l-3-3c0-2-1-2-2-3v-1c-3,0-3,1-4,2h-1v-1l2-2h3l2,2v1l1-1h1l-1-2v-1l-1,1h-1l-3-3v-1h-2v-1l-4,4h-1l-1-1l1,1v1h-3v-1l1-1h1v-2z"/><path d="M358,198h1v3l-1,3h-1v-3zm-149,1h1l2,1v1h3l2,1v1h-3l-2-1l-2-1l-1-1zm262,0h1l1,1l3,6l1,3v2h-1l-1-2c0-3-1-3-4-9zm-427,1h1v1l-3,6h-1v-2l2-4zm89,0h1l1,1l3,6l1,3v2h-1l-1-2c0-3-1-3-4-9zm-101,1h1v2h-1zm447,0h1l1,2c0,3,1,3,2,5v3h-1l-1-2l-2-6zm-462,1h1c0,4,13,4,13,2h1v4l-1,10h-1v17h7v-17h1c0,18,1,18,2,23v3h-1l-1-3l-1-4v-1l-7,1h-2v-1l1-18c1-11-11-11-11-8h-1z"/><path d="M373,202h1v1l-1,2h-1v-2zm-155,1h2v1h-2zm3,1h3l4,1v1h-4l-3-1zm-101,1h1l1,1v1l-1,2l1-1h1l1,1l1,2l1,3v2h-1v-2l-1,2h-1c0-3-1-3-3-7v-3v1h-1v-1zm4,8l-2-4zm232-8h1v2h-1zm-245,1h1l3,3v1h-1l-3-3zm118,0h5v1h-5zm142,0h1v2l-1,2h-1v3l-1,2h-1v-2l1-3zm-315,1h3v1l-2,4h-1v3h-1c0,4,1,4,4,5v1h-3l-2-1l-1-5v3h-1v-3l1-2h1l1,1v-2l1-2h1v-2l-2,4h-1v-2l1-2z"/><path d="M235,207h5l6,1v1h-6l-5-1zm-195,1h1v2l-1,3h-1v4h-1v-4l1-3zm315,0h1v2h-1zm-107,1h6l6,1v1h-6l-6-1zm130,0h1v2h-1zm24,0h1v1l-1,1h-1v-1zm-339,1h1v1l-2,4h-1v4h2v1h-3v-5l2-4zm52,1h1l1,1l1,2l1,3v2l-1,1h-2v-1c2,0,2-2,1-2c0-3-1-3-2-5zm40,0h11v1h-11zm107,0h6v1h-6zm148,0h1l3,3l1,2v3l-1,2l-2,1h-3v-1c3,0,3-1,4-2h1c0-3-1-3-2-4c0-2-1-2-2-3z"/><path d="M172,212h8v1h-8zm97,0h6v1h-6zm108,0h1v3l-1,6h-1c0,12,1,12,2,18v3h-1l-1-3l-1-6v-12l1-6zm23,0h1v1l-1,2h-1v-2zm77,0h1v2h-1zm6,0h1v2h-1zm-469,1h1v3h-1zm64,0h1l3,3v1c-1,1,0,1,1,3v4l-1,1l-4,1h-4v-1l2-1c3,0,2-1,2-4l1-1c2,0,1-1,1-2l1-1l-1,1h-1v-1l1-1l-1,1h-1v-1l1-1l-1,1h-1v-1zm1,8v2h2v-3l-1,1zm197-8h6v1h-6z"/><path d="M353,213h1v2l-1,2h-1v-2zm38,0h1v2h-1zm-252,1h1v3h-1zm10,0h1v4h-1zm136,0h5l8,1l6,1v1h-6l-8-1l-5-1zm170,0h1l1,2v4h-3v-1c2,0,1-3,1-5zm29,1h1v3h-1zm-399,1h2v2l-2,2h-1v-1l1-1h1h-2v-1zm7,0h2v2l-2,2h-2v-2zm298,0h1v3h-1zm2,0h1l1,3c0,1,3,1,13,3v1l-3,1c-5,0-5,1-6,2h-1v-1l2-2l3-1h-3v1h-7v2h-1v-2l1-1h5l-3-1l-2-1z"/><path d="M398,216h1v3h2v1h-3zm64,0h1v4l-2,1l-3,1h5l1,1v3h-1v-3l-7,1h1l1,1v1h-1l-1-1v-1h-5l-3-1v-1h5l3,1l-3-1v-1l5-1c3,0,3-1,4-4zm16,0h1v4h-1zm-464,1h2l1,3v4h-1c0-4-1-4-2-6zm62,0h1v1l-1,2l-2,2h-3l-6-1v-1h6c3,1,3,0,4-2zm48,0h1v2l-1,1h-1v-1zm2,0h1v4h-1zm180,0h6v1h-6zm61,0h1v2h-1zm97,0h1v3h-1z"/><path d="M314,218h6v1h-6zm37,0h1v2l-1,3h8v1h-8c-1-1-1,0-2,1h-1v2l-3,3l-2,1h-2v-1c2,0,2-1,6-5h1c0-2-5-2-12-3v-1h7c7,1,7-1,8-3zm-300,1h1l1,6v5l-1,5h-1zm89,0h1v18l-1,3h-1v-3zm10,0h1v5h-1z"/><path d="M201,219h2v1h-2zm120,0h6v1h-6zm164,0h1v4h7v1h-7v4h-1zm-382,1h2v1h-2zm101,0h4l5,1v1h8l8,1v1h-8l-8-1l-5-1l-4-1zm126,0h4v1h-4zm36,0h1v4l-1,7h-1v-6h-2v-1h3zm37,0h5v1h-5zm34,0h1l1,1v1h-1l-1-1zm4,0h2l3,1v1h-3l-2-1zm6,0h5v1h-5z"/><path d="M60,221h4v1q-2,1,1,0h5l5,1v1l-3,1h-4v-1l2-1h-3v1l-5,1h-3v-1h3h-9v-2zm27,0h4v1l-4,1h3l1,1v5l1-1h1v1l-2,2h-2v-3l1-2h-3v-1h2c-2-1-2,0-3,1h1l1,2v1h-1l-1-1l-1-2v2l-1,2l1-1h1v1l-1,1l1-1h2v1h-2l2,1v1h-2l-3-3v-5h1c1,1,1,0,3-2l-2,1h-1v-1l1-1zm302,0h1v14l1-4h1l1,5v3l-1,2h-1v-2l1-3l-1,3h-1l-1-4z"/><path d="M425,221h4l2,1l2,2v2h-1c0-2-1-2-3-3v-1h-4l3,1l2,1l1,1v1h-2c0,3,2,1,3,1l1,1v2l-1,2h-1v-2q1-2-2,1h-2c-1-1-1,0-3,1h2v1h-2l-2-2v-1h1l1,1l-1-1v-2h3l2,1c0-3-2-2-3-2v-2l3-1c-3,0-3,1-4,2h-1l-1-1v-1h3l-1-1v-1zm0,9h1v-1h-1zm40-9h1v12h-1zm37,0h1c0,12,2,12,4,14v5l-1,4l-1,1l-4,2c-3,0-3,1-5,2h-2l-2-1l-3-3v-1c-12,0-12,2-16,10l-1,1h-1v-1l3-6h1v-3l1-2h12l-1-1l-1-3v-4h1c0,4,1,4,2,7c0,2,1,2,3,4v1h2v1l1-1l3-1c3,0,3-1,5-2h2v-5l1-2h-1c0-2-1-2-3-4z"/><path d="M92,222h1l1,1v1h-1l-1-1zm35,1h1v9h-1zm81,0h4v1h-4zm200,0h4v1l-2,1h-4v-1zm35,0h4l2,1v1h-4l-2-1zm36,0h1v8h-1zm-265,1h5v1h-5zm19,0h8v1h-8zm263,0h2v1h-2zm-433,1h4l4,1l2,1l1,1v5l-1,1h-1v-1c1-5-1-5-9-7zm31,0h1v5l-3,3h-2v-1c2,0,2-1,3-2h1zm18,0h3v1h-3zm39,0h1c0,9,9,9,29,10v1h-20l-10-1z"/><path d="M222,225h9v1h-9zm24,0h9v1h-9zm155,0h3v1h-3zm50,0h3v1h-3zm-393,1h1v6h-1zm22,0h1l1,1v4l-1,1h3l2,2v2l2-2h2l2,1l1,2v-4l1-1c3,0,2-2,2-4h1l1,2l-1-2v-2h2v1l-1,1l1-1h1v3l-2,1h1l1,1c0,2,1,1,2,1v1l-1,1l1-1h2v1h-1h3v1l-1,1l1-1h1v1l-1,1h-1l-4-2l-1-1v-1h-2v-1c-3,0-1,1-1,3h-2l-1-2v4l-1,2l1-1h1v1l-1,2l1-1h1l1,3v2l-1,2l1-1h1v2v-9h1l1,6v3l-1,3l1-2h1l1,2c0,2,2,1,4,1v-1h1v1l-1,1l-2,1h-2l-1-1l-1-2v2l-1,3l1-2h1l2,4v1h2l2,1l-1-1v-1h1l2,1l-1-1v-1l1-1h1v1l-1,1h2v-3l5-5h1v-2l1-1l1-1h1v1l-1,2l1-1h1v1l-1,1h-1l-1-1l1,1v2l-1,1h-1l-1-2v1l-1,1h2v1l-1,1h-1l-1-2v1l-1,1h-1l1,1v1l-2,2l-2,1c-2,0-2,1-3,2l-6,2h-3v-1l3-1l-3,1h-4v-1h4v-1c2,0,1-5,1-8l1-2l-1,1h-1v-4v2l-1,2h-1v-8l1-1l-1,1h-1c0-3-1-3-2-5v-2l-1,2h-4c0-2-1-2-2-3l1,1v2h-1l-1-1v-2l1-3l-1,2h-2v-1c2-2-1-2-2-3v-1l1-2l-1,1h-2v-2h3l-1-1zm10,13v-1l1-1h-1l-2-1v3zm15,23l-2-1l-2-2l-1-2v6l3-1z"/><path d="M108,226h3v1c-3,0-3,1-5,2h-1c0,3,1,3,3,5v1h-1l-2-1l-1-2v-3l1-2zm127,0h8v1h-8zm24,0h9v1h-9zm147,0h2v1h-2zm11,0h2l1,1v4l-1,1h3l2,2v3l1-2l2-1h1l2,1l1,2v-3h1c0,4,1,4,2,7v4v-1h1v2l-1,1h-1l-1-2v-4v1h-1v-3l1-1l-1,1h-1l-3-3v1l-1,2h3v1h-3l-3-3c0-3-1-1-3-1v-2l2-1h-3l-1-1l1,1v1c-2,0-2,1-3,2l-4,2h-1l-1-1v-1h1l1,1l-1-1v-1h2l1,1l-1-1v-1h3h-1v-1h1l1,1l-1-1v-1c2,0,2-1,3-2h-3v-2l3-1h-2z"/><path d="M421,226h1v3h-1zm15,0h2v1l-2,1h3v2l-3,1h1l2,1l1,1v1h2l2,1l1,1v1h-1l-1-1l1,1v1h-1l-6-3l-1-1v-1l1-1l-1,1h-3v-1c3,0,1-2,1-3h1l1,1l-1-2v-1zm10,0h3v1c-3,0-3,1-5,2h-1c0,3,1,3,3,5v1h-1l-2-1l-1-2v-3l2-2zm-431,1h1v2h-1zm232,0h9v1h-9zm25,0h10l13,1l10,1v1l-10,1h-10v-1q10,0-3-1l-10-1z"/><path d="M409,227h2l1,1v2h-1v-2h-2zm-151,1h11v1h-11zm14,1h8v1h-8zm-258,1h1l3,3c0,1,4,1,9,2v1h-5l-4-1l-4-4zm105,0h1v4h-1zm191,0h10v1l-9,1h-12v-1zm16,1h14v1h-14zm131,0h1v4l-1,3l-1,2c-3,0-2,1-2,4h-1l-2-1l1,1v3l-1,1h-1v2c-2,0-2,1-5,4l-2,1h-3l-1-1l-1-2v2l-1,2h-1l-1-3v-4v1h-1v-2l1-1h1l1,2v2l-1,2l1-1h1l-1-3l-1-4v-5l2-2h3v1l-3,1h-1c0,5,1,5,2,9v3h1c0,2,3,2,3,1l1-1c2,0,2-1,6-5h1c0-3-2-3-4-4l-1-1v-1l2-1h1h-3v-1l1-1l-1,1h-1v-1l1-1h1l4,2l1,1c0-1-1-1-3-2l-2-2v-1h1l2,1l1,1v1h2c2,1,2,0,3-3h1zm-9,11h1l2,1l-1-1v-1h2h-1l-2-1v1z"/><path d="M463,231h1l1,4v3h-1v-3v6h-1v-2v4h-1l-1-2v-2zm-385,1h1l1,1v1l-1,1c-2,0-2,1-3,2h-2l-1-1l1,1v1l-2,1c-2,0-2,1-3,2l6-3h4l2,2v8v-3l1-2h1l1,1l-1-2v-2h1l1,1v3l-1,2h-1l-1-1l1,2v2l-1,3l1-2h1v-3l1-2l2-2h1v1l-1,1h-1v3l-2,4h-1v3h-1q-1-3,0,0v1h-1l-1-1v3h-1l1,4v1h-1l-1-1v-6v2l-1,2h-1v-2l1-2h1l-1-3v-2l1-3h1v-4l1-4h-1v-1c-4,0-4,1-12,5h-1v-1l1-1l2-1h-2v1c-2,0-2,1-3,2c-2,0-2,1-3,2h-1c0,3,1,3,2,4v2h-2h3v1l-1,1l1-1h1v1l-1,1l1-1h1v1l-1,1l1-1h2l2,2v3c2,0,1-1,1-2h1l2,1v1l-2,1l2-1h2v1h-2l2,1v1h-2l-4-2l-2-2v-3c-2,0-1,1-1,2h-1l-6-6v-1l1-2l-1,1h-1l-2-2v-2h1c0,2,1,2,2,3v-3l3-3l-2,1h-4v2h-1l-2-4l-1-3v-3l1-3h1v3l-1,3l1-2h1c0,3,1,3,2,5v1l3-1h2l1,1l-1-1v-1h2l1,1l-1-1v-1h-3l-1-1v-2h1l1,1v1l2-1h1v1l-1,1l2-1h1l2,1l-1-1v-1h1l1,1l-1-1v-1l-2,1h-1v-1l2-2l2-1h1v1c-2,2,0,2,1,3l-1-1v-1c2,0,2-1,3-2h2l1,1l-1-1v-1zm-24,8l2,4zm12,1h1v-1h-1zm15,10h-1l-1-3v3h1l1,1z"/><path d="M315,232h10v1h-10zm82,0h1l1,4v2h-1l-1-2zm14,0h1v1l-2,2c-2,0-2,1-3,2h-1v-1l2-2c2,0,2-1,3-2zm-352,1h1v3h-1zm271,0h10l16,1v1h8v-2h1v6l-1,6h8v1h-8v6h-4v-1h3v-6h-4v-1c4,0,4-5,5-8h-8l-16-1l-10-1z"/><path d="M433,234h2v2h-2zm45,0h1v4h-1zm-369,1h1l1,1v1h2l2,1v1c2,0,2-2,3-4h1v3l-2,2h-2l-2-1l1,1v1l-1,1l2-1h1v3h-1l-2-1l1,1v3l-5,5h-1v-1l3-3h1v-2c1-2-1-2-5-4l-1-1v-1h-2v-1h2c2,1,2,0,3-1l-1,1h-1v-1l1-1h3h-1l-1-1zm-1,6h2v-1l1-1l2-1h-2v1l-1,1zm16-6h1l1,3v2h-1l-1-2zm62,1h13v1h-13zm21,1h15v1h-15z"/><path d="M404,237h1v5h-3h2l1,1v1c-1,3,0,3,5,8v1h-1l-1-1v-1h-2l-1-1c0-2-1-2-2-3v-3l1-1l-2,1h-1v-1l1-1h-2v1l-2,1h-3l-2-2l1,2c0,2,1,2,2,3v2l1-3l2-2h1v1l-1,1h-1l1,3v1h-3l-2-2l-2-4v-2l1-2h1l1,2v1c3,0,3-1,5-2h2l-3-1v-1c3,0,3-1,5-2zm-1,3h1v-1h-1zm5-3h1l1,1v1h-1l-1-1zm-308,1h3v1h-3zm129,0h16v1h-16zm177,0h1l1,1v1q-1,1,5-2h4l2,2v4h-1l-1-4v-1c-4,0-4,1-10,4h-1z"/><path d="M422,238h1l1,1v3h-1v-2v4h-1v-1v4h-1l-1-1v-3l1-3zm-299,1h1l1,2v2h-1v-2v4l-1,2l-1,1h-1v-1l2-4l-1,1h-3v-1c3,0,3-2,4-4zm129,0h16v1h-16zm23,1h16l23,1l15,1v1h-15l-23-1l-16-1z"/><path d="M477,240h1v2h-1zm-339,2h2v1l-1,1h-1v3l-4,8l-1,1h-1v-1l4-8h1v-3zm322,0h1v1l-1,1h-3v-1zm-369,1h1l1,1l1,2v2h-1l-2-4zm53,0h8v1h-8zm193,0h15v1h-15zm41,0h1c0,3,1,3,5,11v1h-1l-1-1l-3-6l-1-2zm47,0h1v1l-1,1h-1v-1zm3,0h2l1,1l2,4l1,3v1h-1l-1-1l-1-3v-2h-1v-2h-2z"/><path d="M117,244h1l1,1v1h-1l-1-1zm338,0h1l2,2v3l1-2l1-1h1v1l-1,2l-1,1h-1v2l-5,5h-1l-2-1v3l-2,2l-4,2h-2v-1c4-2,2-1-1-1l-1-1v-1h1c3,1,3,0,5-1h1v1l-1,1h2v-3l3-3h1l1,2v-3h1c1,1,1,0,2-1h1v-2l1-1l-2,2h-1v-1l2-4h-1l-1-1zm-390,2h1l2,2v2h-1c0-2-1-2-2-3zm352,0h1v2h-1zm-376,1h1l4,8v1h-1l-1-1l-3-6zm110,0h32l20,1v1h52v1h-53l-19-1v-1l-20,1h-11l-1-1z"/><path d="M419,247h1l1,1v2l1-2h1v2l-1,2h-1q-1-2,0,1v2h-1v-2l-1,2h-1l-1-1l1,2v3h-1l-1-3c0-2-1-1-4-1l-1-1v-1h1l3,1v-2h1q1,2,0-1v-2h1l2,4l-1-2v-2h1l1,1v-2h-1zm-350,3h1l2,2c0,1,2,1,5,2v1h-3l-2-1l-3-3zm212,0h53v1h-53z"/><path d="M397,251h1l1,1v1l1-1h1v1l-1,1l1-1h1v1l-1,1l1-1h1v1l-1,1l1-1h1v3h-1l-5-5l-1-1zm-301,3h1v3l-1,1h-3v-1h3zm288,2h1l1,1v1h-1l-1-1zm21,0h1l1,1v1h2l2,1v1l3-1h1v1l-1,1h-3l2,1v1h-2l-2-1v-1l2-1l-2,1h-2v-1h2h-3v-1l1-1l-1,1h-1zm29,0h1v1l-1,1h-2v-1zm36,0h1v1l-1,2l-11,11c-2,0-2,1-3,2l-2,1c-2,0-2,1-3,2c-3,0-3,1-5,2l-3,1h-3v-1l3-1c3,0,3-1,11-5c2,0,2-1,4-3c2,0,2-1,9-8h1v-2z"/><path d="M46,257h1l4,4c0,2,1,2,3,4v1h2l1,1l2,2v1h-1l-1-1v-1h-2l-5-5l-1-1c0-2-1-2-3-4zm37,0h3v1h-3zm48,0h1v1l-3,3h-1v-1zm290,0h2v1h-2zm16,0h1v6h-2v-1zm-349,1h2l1,1v2h-3zm338,0h4v1l-1,2h-3zm-40,1h1l7,7l2,2v1h-1l-7-7l-2-2zm-259,3h1v1l-4,4h-1v-1zm-51,1h2v1h-2zm6,0h3v1l-3,1h-3v-1z"/><path d="M420,263h3v1h-3zm11,0h4v1h-4zm8,0h2v1h-2zm-22,1h2v1h-2zm19,0h2v1h-2zm-353,1h12v1h-12zm338,0h13v1h-13zm-300,2h1v1l-3,3l-2,1h-1v-1l2-2c2,0,2-1,3-2zm276,2h1l1,1v1h-1l-1-1zm-337,1h1l1,1v1h-1l-1-1zm340,1h1l8,4v1h-2l-6-3l-1-1zm-337,1h1l2,1v1h3l2,1v1h3l3,1v1h-3l-6-2l-4-2l-1-1zm51,0h1v1l-1,1l-2,1h-2v-1z"/><path d="M107,275h2v1l-2,1l-3,1h-3v-1zm306,2h2v1h-2zm-335,1h4v1h-4zm18,0h4v1h-4zm321,0h4v1h-4zm18,0h3v1h-3zm-350,1h8v1h-8zm337,0h11v1h-11z"/></g><g style="fill:rgb(105,105,105);fill-rule:evenodd;stroke:rgb(105,105,105);stroke-width:0.1;" id="l3"><path d="M120,0h3l2,1v1h-2l-3-1zm28,0h1v1l-1,1l-2,1h-1v-1l1-1zm31,0h2l3,1l1,1v1h-2l-4-2zm168,0h1v1h-1zm-191,1h14l3,1v1h-8c-6-1-6,0-10,1h-3v-1zm-85,1h5v1c-4,0-4,1-6,3h-1l1,5v1h-2l-1-2v-5l2-2zm12,0h6v1h-6zm43,0h2l3,1v1h-3l-2-1zm-34,1h4v1h-4zm50,0h2v1l-2,1h-10v-1z"/><path d="M174,3h3v1l-3,1h-2v-1zm12,0h2v1h-2zm-89,1h4v1h-4zm52,0h2v1l-2,1h-4v-1zm199,0h1v3h-1zm-246,1h4l3,1v1h-3l-4-1zm50,0h1l2,1v1h-2l-1-1zm94,0h1v1l-1,1h-1v-1zm-108,1h1l1,1v1h-1l-1-1zm-24,2h1l3,1v1h-3l-1-1zm-41,1h2v1h-2zm31,0h3l1,1v1h-2l-2-1zm165,0h1v2h-1zm27,5h1v2h-1zm-225,4h1l1,1v1h-1v-1l-1,1h-1v-1zm164,2h1v1l-1,1h-1v-1zm51,0h1v1l-2,2h-1v-1zm14,0h1v2h-1zm-133,1h2v1h-2zm80,0h1v1l-1,1h-3v-1zm-92,1h3v2h-2l-1-1z"/><path d="M254,22h1v1l-1,1h-1v-1zm-112,1h2l1,1v1h-1l-2-1zm-13,1h2l1,1v1h-1l-2-1zm-13,1h1l1,1v1h-1l-1-1zm66,3h1l1,1v1h-2zm-39,7h2v1h-2zm7,0h1l1,7v8h-1l-1-2zm37,0h2v3l-1,2h-1zm-32,7h1v1l-1,1h-1v-1zm-11,4h1l1,1v1h-1l-1-1zm-5,1h1l1,1v1h-1l-1-1zm44,0h1v3h-1zm174,1h2v1h-2zm-219,3h1l1,1v1h-2zm51,2h1v1l-1,1h-1v-1zm-35,5h1l1,1v1h-1l-1-1zm-13,5h1l1,1v4h-1l-1-4zm9,0h1v2h-1zm35,1h1v2l-1,2h-1v-2zm-35,3h1v5h-1l-1-3v-1z"/><path d="M189,71h1v3h-1zm161,2h1l2,2v1h-1l-2-2zm24,0h1l1,1v1h-1l-1-1zm-231,1h1l1,1v1h-1l-1-1zm7,0h2v2h-3v-1zm226,2h1l1,1v1h-1l-1-1zm-224,5h3v1l-1,1h-2zm22,0h4v1h-4zm210,0h1l1,1v1h-1l-1-1zm-224,1h1v1l-1,1h-1v-1zm38,0h2v1h-2zm12,1h2v1l-2,1h-1v-1zm118,0h2v2h-1l-1-1zm-285,2h1v1l-1,1h-2v-1zm147,0h2v1l-1,1h-2v-1zm43,0h1v1l-1,1h-2v-1zm-175,1h1v1l-1,1h-2v-1zm83,0h7v1h-7zm33,0h1v2h-1zm69,0h2v1l-1,1h-3v-1zm-174,1h4v1l-2,1h-3v-1z"/><path d="M165,87h1v2h-2v-1zm11,0h2v1h-2zm39,0h4v1l-1,1h-4v-1zm37,0h3v1l-1,1h-2zm46,0h1v2h-2v-1zm-216,1h1v1l-1,1h-1v-1zm57,0h1l1,1v1h-1l-1-1zm101,1h2v1l-1,1h-2v-1zm-29,1h1v1l-1,1h-2v-1zm41,0h1v1l-1,1h-1v-1zm164,0h3l1,1v1h-5v-1zm-256,1h1l1,1v1h-1l-1-1zm62,0h2v1l-2,1h-1v-1zm42,0h1v1l-1,1h-2v-1zm11,1h1v1l-1,1h-2v-1zm-31,1h2v1l-1,1h-3v-1zm42,0h1v1l-1,1h-3v-1zm-195,1h1l5,5v1h-1l-5-5zm162,0h4v1l-1,1h-3z"/><path d="M294,94h3v1l-1,1h-2zm15,0h2v1h-2zm9,0h3v1l-1,1h-2zm82,0h1l1,1v1h-1l-1-1zm-136,1h1v1l-1,1h-1v-1zm41,0h1v1l-1,1h-1v-1zm22,0h2v1h-2zm51,0h1l1,1v1h-1l-1-1zm-103,1h1v1l-1,1h-1v-1zm40,0h1v1l-1,1h-1v-1zm-30,1h1v1l-1,1h-1v-1zm40,0h1v1l-1,1h-1v-1zm45,1h1v1l-1,1h-1v-1zm19,0h1v1l-1,1h-1v-1zm-248,1h1l2,1v1h-2l-1-1zm192,0h2v1h-2zm46,0h1l1,1v1l-1,1h-1v-1l1-1l-1,1h-2v-1zm5,0h1l5,5v1h-1l-5-5zm12,0h1v1l-1,1h-1v-1zm10,0h1l1,1v1h-1l-1-1zm-104,1h2v1h-2zm10,0h3v1l-1,1h-3v-1z"/><path d="M402,100h1v2h-2v-1zm-51,1h2v1h-2zm9,0h1v2h-2v-1zm8,0h1l1,1v1h-1l-1-1zm-38,1h1v1l-1,1h-1v-1zm86,0h1v1l-1,1h-1v-1zm25,3h1v1l-1,1h-1v-1zm-79,1h1v2h-2v-1zm41,0h1v1l-1,1h-2v-1zm-377,1h1v1l-1,1h-1v-1zm343,0h2v2h-2zm40,0h2v1l-1,1h-2v-1zm-373,1h1v2h-1zm341,0h2v1l-2,1h-1v-1zm15,2h1v1l-1,1h-1v-1zm61,1h1l2,2v1h-1l-2-2zm-47,1h1v2h-2v-1zm31,0h2v1c-2,0-2,1-3,2h-1v-1zm-387,1h1v1l-1,1h-1v-1zm363,0h2v1l-1,1h-2v-1zm38,0h2v1l-1,1h-2v-1zm-410,1h1v1l-1,1h-1v-1zm12,0h1v2h-1zm-21,1h1l1,1v2h-1l-1-1z"/><path d="M107,121h1v4h-1zm-62,3h1v4h-1zm322,0h1v5l-1,12l1-2h15v1l-2,1h-13v4h-1l-1-3v-16zm-190,1h1v1l-1,1h-1v-1zm5,1h2v1l-1,1h-2v-1zm291,0h1l1,1v1h-1l-1-1zm-442,1h1l1,1v1h-1l-1-1zm157,0h2v1l-1,1h-2v-1zm282,3h1l1,1v1h-1l-1-1zm6,0h1v1l-1,1h-1v-1zm-266,1h1v1l-1,1h-1v-1zm-107,1h1v1l-2,2h-1v-1zm112,0h1v2h-2v-1zm5,1h2v1l-1,1h-1zm-181,1h1l1,1v1h-1l-1-1z"/><path d="M453,134h1l1,1v1h-1l-1-1zm21,0h1l1,1v1h-1l-1-1zm-3,1h1v3h-1zm-425,2h1l1,1v1h-1l-1-1zm48,0h1l1,1v1h-1l-1-1zm152,1h1v2h-1zm-191,1h14v1l-3,1h-9l-2-1zm196,0h1v2h-2v-1zm232,0h1l2,2v1h-1l-2-2zm-438,1h2v2h-1l-1-1zm34,0h2v1h-2zm177,0h1v2h-2v-1zm138,0h2v1h-2zm93,0h1l3,3v3h-1l-1-1v-1c1-1,0-1-2-3zm-400,1h1v1l-1,1h-1v-1zm-61,3h2v6h-1l-1-5zm254,1h1v2h-1zm151,0h1v2h-2v-1zm-397,1h1v1l-2,2h-1v-1zm76,0h1v2h-1z"/><path d="M285,146h1v2h-2v-1zm151,0h1v2h-2v-1zm56,3h1v2h-1zm-184,2h1v2h-1zm94,1h1v1l-1,1h-2v-1zm57,0h1v2h-2v-1zm22,0h1v2h-1zm-72,1h2v1l-2,1h-1v-1zm-382,1h1l1,1v1h-1l-1-1zm465,0h2v1h-2zm-127,1h1l1,1v2h-1l-1-1zm-25,3h1v2h-2v-1zm95,0h1v1l-1,1h-1v-1zm-90,1h1v1l-1,1h-1v-1zm94,0h1v1l-1,1h-1v-1zm6,2h1v2h-1zm57,2h1l2,2v1h-1l-2-2zm-434,2h1v2h-1zm37,0h1v2h-1zm259,0h1l1,1v1h-1l-1-1zm140,2h1v2h-1zm-322,3h1l1,1v1h-1l-1-1zm315,0h2v1h-2zm-476,1h2v1h-2zm411,3h2v1l-2,1h-1v-1zm63,3h2v1h-2zm-386,1h1v2h-1z"/><path d="M462,180h1l1,1v1h-1l-1-1zm-101,4h1l1,1v1h-1l-1-1zm-167,3h1l1,1v1h-1l-1-1zm-100,1h1v1l-1,1h-1v-1zm376,0h1l1,1v1h-1l-1-1zm-391,2h1v1l-1,2h-1v-2zm23,0h1v1l-1,1l-2,1h-1v-1l1-1zm332,0h1v1l-1,1h-1v-1zm-31,6h1v1l-1,1h-1v-1zm27,0h1v6h-2v-5zm-341,1h1v11h-1zm25,0h1l4,4v1h-1l-4-4zm338,0h1l1,1v1h-1l-1-1zm-420,3h2v1h-2zm33,0h1v1l-1,1h-1v-1zm49,0h1v1l-1,1h-1v-1zm329,0h1l1,1v1h-1l-1-1zm-328,2h1l1,1v1h-1l-1-1zm332,0h2v1h-2zm-3,1h2v1h-2zm-339,1h2l1,1v1h-1v-1l-1,1h-1z"/><path d="M224,204h1v1l-1,1h-1v-1zm233,0h1c0,2,1,1,2,1v4h-1c0-2-1-2-2-3zm-388,1h1v2h-1zm159,0h2v1l-1,1h-1zm179,0h1v1l1-1h1v1l-1,1h-2zm-341,2h1v1l-1,1h-1v-1zm8,0h2l5,5v1l-1,1h-1v-1c1-1,0-1-3-4v-1l-2,1h-1v-1zm27,0h1v1l-2,2h-1v-1zm139,0h1v1l-1,1h-1v-1zm7,1h1v1l-1,1h-1v-1zm194,0h1l1,1v1l-2,2h-1l1,1v1h-1l-1-1v-1l2-2h1h-2v-1zm-402,1h1l1,1v1h-1l-1-1zm215,0h1v1l-1,1h-1v-1zm161,0h1l3,3v1h-1l-3-3zm-314,1h1l1,1v1l-1,1h-1l1,1v1h-1l-1-1v-1l1-1h1h-2v-1z"/><path d="M122,210h1l1,1v1h-1l-1-1zm33,0h1v1l-1,1h-2v-1zm13,1h3v1l-2,1h-3v-1zm100,0h2v1l-1,1h-2v-1zm146,0h1v1l-1,1h-1v-1zm62,0h2v1h-2zm-201,1h2v1l-1,1h-1zm8,1h1v1l-1,1h-1v-1zm195,1h1v1l-1,1h-1v-1zm24,0h1l1,1v6h-1l-1-5zm-423,1h1l1,1v1h-1l-1-1zm219,0h1v1l-1,1h-1v-1zm-269,1h1v2h-1zm46,0h2v1h-2zm51,0h1v1l-1,1h-1v-1zm24,1h1v2h-2v-1zm50,1h1v2h-1zm120,0h2v1l-1,1h-2v-1zm98,0h1v2l-2,1h-1v-1zm-320,1h2v1l-2,1h-1v-1zm229,0h1v2h-1zm-256,1h3v1h-3zm15,0h1v2h-1zm19,0h2l1,1v1h-1l-2-1z"/><path d="M335,220h1v1l-1,1h-1v-1zm40,0h1l1,1v1h-1l-1-1zm46,0h2v1h-2zm43,0h2v1h-2zm-381,1h1v2h-1zm138,1h1v1l-1,1h2v1l-1,1h-3v-1c2,0,1-1,1-2zm178,0h1v1l-2,2h-1l1,1v6l-1,1h-1v-8zm-338,1h1l2,1v1l-1,1h-2v-1h1l-1-1zm6,0h2v1l-1,1h-1zm8,0h1v2h-2v-1zm10,0h2v1h-2zm17,0h1l3,1l2,2v1h-1l-4-2l-1-1zm9,0h1v4h-1zm40,0h1v2l-1,1h-1v-2zm255,0h2v1h-2zm-354,1h2v2h-1l-1-1zm30,0h2v1h-2zm33,0h1l1,1v1h-1l-1-1zm116,0h2v2l-1,1h-2v-1z"/><path d="M243,224h3v1c-2,0-1,1-1,2l-2,1h-1v-1l1-1h-2v-1zm118,0h2v1h-2zm39,0h1v1l-1,1h-1v-1zm98,0h1v2h-1zm-420,1h2v1l-1,1h-1zm20,0h2l1,1v1h-1l-2-1zm157,0h2v1l-1,1h-2v-1zm136,0h1v6l-1,1h-1v-1zm18,0h2v1h-2zm7,0h3v1c-2,0-1,1-1,2h-1l-1-1zm20,0h3v2l-1,1h-2v4h-1l-1-1v-3l2-1h2h-3v-1zm-385,1h1v2h-1zm42,0h1v1l-1,1h-1v-1zm175,0h1v1l-1,1h-1v-1zm154,0h3l1,1v1h2v1h-2c-2-2-2-1-3,1h-2v-1zm36,0h1v5h-1z"/><path d="M120,227h1v3h-1zm162,0h1v1l-1,1h-1v-1zm-12,1h2v1l-2,1h-1v-1zm25,0h2v1l-2,1h-1v-1zm190,0h1v4h-1zm-471,1h2v2h-1l-1-1zm271,0h1v1l-1,1h-2v-1zm25,0h1v1l-1,1h-2v-1zm-257,1h1v1l-1,2h-1v-2zm245,0h2v1l-1,1h-2v-1zm26,0h1v2h2v1l-2,1h-1v-1l1-1h-2v-1zm102,0h1l1,1l1,2v1h-1l-2-1zm-367,1h1v2h-2v-1zm20,0h1l1,1v1h-1l-1-1zm5,0h1v2h-1zm9,0h1v1l-1,1h-1v-1zm218,0h4v1l-2,1h-3v-1zm106,0h1v1l1-1h1v1l-1,1h-1l-1-1zm-340,1h1l1,1v1h-1l-1-1zm299,0h1v1l-1,1h-1v-1zm46,0h1l1,1v1h-1l-1-1z"/><path d="M88,233h2l1,1v1h-1l-2-1zm252,0h2v1l-2,1h-1v-1zm71,0h1l2,2v1h-1l-2-2zm29,0h1v1l-1,1h-1v-1zm-316,1h2v1h-2zm232,0h1v1l-1,1h-2v-1zm-305,1h2v1h-2zm88,0h1v2h-1zm20,0h2v1h-2zm239,0h1v1l-1,1h-1v-1zm-363,1h2v1h-2zm70,0h1v1l-1,1h-1v2h-1v-2zm4,0h3v3h-4v-1zm97,0h1v1l-1,1h-3v-1zm241,0h1v2l-1,1h-1v-1zm-357,1h1l1,1v1h-1l-1-1zm135,0h5v1l-1,1h-5v-1zm184,0h1l1,1v1h-1v-1l-1,1h-1v-1zm13,0h1l1,1v1h-1l-1-1zm-353,1h1l1,1v2h-1c0-2-1-1-2-1v-1z"/><path d="M247,238h6v1h-6zm190,0h1v1l-1,1h-1v-1zm40,0h1l1,1v1h-1l-1-1zm-394,1h1l1,1v1h-1l-1-1zm185,0h2v1h-2zm180,0h1v1h-1l1,1v1h-1l-1-1v-1zm-409,1h1v1l-1,1h-1v-1zm99,0h1l1,1v1h-1l-1-1zm153,0h2v1l-2,1h-2v-1zm131,0h1v2h-1zm-340,2h2v2h-1l-1-1zm62,0h1v1l-1,1h-2v-1zm167,0h3v1h-3zm66,0h2v1h-2zm43,0h1l3,3v1h-1l-3-3zm6,0h1l1,1v1h-1l-1-1zm-330,1h1v1l-2,2h-1v-1zm56,0h1v2h-1zm181,0h3v1h-3zm60,0h2v1h-2zm-333,1h1v1l-1,1h-1v-1zm4,0h1v2h-1zm292,0h2v1h-2zm15,0h7v1h-7z"/><path d="M399,245h1v1l-1,1h-1v-1zm-303,1h2v1l-1,1h-1v3h-1v-3zm320,2h2v1h-2zm20,0h1v1l-2,2h-2v-1c2,0,2-1,3-2zm22,0h1v1h-1l1,1v1h-1l-1-1v-1zm-376,1h2v1h-2zm15,0h1v2h-1zm102,0h3v1h-3zm68,1h13v1h-13zm80,0h14v1l-7,1h-20v-1zm51,0h1v2h-1zm50,0h1v1l-1,1h-1v-1zm-386,1h1l3,3v1h-1l-3-3zm353,0h2v1h-2zm-14,1h1l1,1v1h-1l-1-1z"/><path d="M100,254h2v1h-2v2h-1v-2zm14,0h1v1l-1,1h-1v-1zm303,1h1v1l-1,1h-2v-1zm-331,2h7v2h-8v-1zm321,0h1v1l-1,1h2v1h-2l-1-1v-1zm17,0h2v1l-2,1h-1v-1zm5,0h3v2h-2l-1-1zm-320,1h2v1h-2zm307,1h2v1h-2zm-290,3h1v1l-2,2h-1v-1zm297,1h8v2h-7l-1-1zm-341,1h11v1l-10,1h-2v-1zm13,0h1l1,1v1h-1l-1-1zm325,0h1v1l-1,1h-1v-1zm14,0h1l1,1v1h-1l-1-1zm4,13h1l1,1v1h-1l-1-1z"/></g><g style="fill:rgb(140,140,140);fill-rule:evenodd;stroke:rgb(140,140,140);stroke-width:0.1;" id="l4"><path d="M77,0h2l4,1v2h-7l-2-1v-1zm82,0h5v1h-5zm-15,2h1v2h-1zm18,0h3v1h-3zm11,0h1v2h-1zm31,1h6v1h-6zm50,3h1v1l-1,1h-1v-1zm6,1h1v1l-1,1h-2v-1zm32,8h1l1,1v1h-1l-1-1zm-139,7h2v1h-2zm17,0h3v1h-3zm90,1h1v1l-1,1h-1v-1zm18,5h1v1l-1,1h-1v-1zm34,0h1v1l-1,1h-1v-1zm-32,1h2v1h-2zm-92,26h1v3h-1zm-39,1h1l1,1v1h-1l-1-1zm9,17h1v1l-3,3h-1v-1zm6,2h1v1l-2,2h-1v-1zm135,2h1l1,1v1h-1l-1-1zm-130,2h1v1l-1,1h-1v-1z"/><path d="M159,86h1v1l-1,1h-3v-1zm-105,1h2v1h-2zm147,0h2v1h-2zm-14,1h3v1h-3zm41,0h3v1h-3zm35,0h3v1h-3zm-114,3h1v1l-1,1h-1v-1zm248,2h1l1,1v1h-1l-1-1zm-65,1h1v1l-1,1h-1v-1zm11,2h3v1h-3zm-310,4h1l1,1v1h-1l-1-1zm111,0h3v1h-3zm-45,1h1l1,1v1h-1l-1-1zm262,0h2v1h-2zm26,3h1v1l-1,1h-1v-1zm-32,1h1v1l-1,1h-1v-1zm40,0h1v1l-1,1h-1v-1zm-354,2h1v1l-1,1h-1v2h-1v-3zm2,3h2v1h-2zm128,14h1v1l-1,1h-1v-1zm-102,1h1v2h-1zm380,0h1v6h-1zm22,13h1v8l-1,1h-1v-1z"/><path d="M456,151h1v1l-1,1h-1v-1zm-143,1h1v1l-1,1h-1v-1zm-183,1h1v1l-1,1h-1v-1zm192,1h1v1l-1,1h-1v-1zm14,3h1v1l-1,1h-1v-1zm-189,3h1v1l-1,1h-1v-1zm336,0h1v1l-1,1h-1v-1zm18,0h1v2h-1zm-129,7h1l1,1v1h-1l-1-1zm-9,6h1l1,1v1h-1l-1-1zm59,1h1l2,1v1h-2l-1-1zm-60,5h1l1,1v1h-1l-1-1zm135,0h1v1l-1,1h-1v-1zm-481,2h1l1,3v1h-1l-1-1zm451,2h1l1,1v1h-1l-1-1zm-411,2h1v1l-1,1h-1v-1zm375,3h2v1c-2,0-2,1-4,3h-1v-1zm9,2h1v1l-1,1l-2,1h-1v-1l1-1zm-28,2h2l1,1v1h-4v-1zm-323,2h1v3h-1zm-56,3h1l1,1v1h-1l-1-1zm388,0h3v1h-3z"/><path d="M427,197h1v5h-1zm-2,2h1v2h-1zm4,3h1v3h-1zm-337,1h1v2h-1zm88,2h1l4,4v1h-1l-4-4zm-124,3h1v2l-1,2h-1v-2zm36,3h1v1l1-1h1v1l-1,1h-1l-1-1zm343,0h1v1l1-1h1v1l-1,1h-1l-1-1zm-253,1h6v1h-6zm-98,4h1l1,1v1h2v1c-2,0-2,1-3,2h-1v-1l2-2h-1l-1-1zm109,0h1l2,1v2l-1,1h-1v-1l1-1h-2zm-163,2h1v3h-1zm-14,1h1v1l-1,1h-1v-1zm97,0h2l1,1v1h-1l-2-1zm310,0h2v1h-2zm30,0h1l1,1v1h-1l-1-1zm25,1h1v3h-1zm-408,1h1v2l-1,1h-1v-1zm43,0h1l3,1l1,1v1h-1l-3-1l-1-1z"/><path d="M213,221h1v1l-1,1h-1v-1zm208,2h1c0,2,1,1,2,1v1l-1,1h-1l-1-1zm26,0h2v1h-2zm48,0h1v1l-1,1h-2v-1zm-445,1h1v2h-1zm16,0h1l1,1v1l-1,1h-1v-1h1l-1-1zm18,1h1l1,1l1,2v1l1-1h1v1l-1,1h-1l-2-2l-1-2zm149,0h2v1h-2zm24,0h2v1h-2zm-116,1h1v2h-1zm323,0h1v3h-1zm-338,5h1l1,2v1h-1l-1-1zm169,0h2v1h-2zm25,0h3v1h-3zm-235,1h1v2h-1zm334,1h2v1h-2zm-397,1h1v1l-1,1h-1v-1zm368,0h1v1l-1,1h-1v-1zm58,3h1l2,1l1,1v1h-1l-2-1l-1-1zm-85,1h1l1,1v1h-1l-1-1zm-93,1h3v1h-3zm-4,1h2v1h-2zm-169,1h1v2h-1zm217,0h2v1h-2z"/><path d="M394,241h1v1l-1,1h-1v-1zm-354,2h1v1l-1,1h-1v-1zm312,1h4v1h-4zm67,1h1l1,1v1h2v1h-2l-2-2zm-39,2h1v1l-1,1h-1v-1zm-298,3h1l1,2v1h-1l-1-1v3h-1v-3zm336,1h1v2h-1zm16,0h1c0,2,1,1,2,1v1l-1,3h-1v-3l-1,1h-1v-1zm-358,6h1l1,1v1h-1l-1-1zm340,0h1v2h-1zm-314,1h1v3h-3v-1zm343,0h1l1,1v1l-1,1h-1v-1h1l-1-1zm-337,1h1l1,1v1h-1l-1-1zm301,1h2l1,1v1h-1l-2-1zm12,4h3v1h-3zm0,14h4v1h-4zm-325,1h416v2h-512v-1z"/></g><g style="fill:rgb(51,51,51);fill-rule:evenodd;stroke:rgb(51,51,51);stroke-width:0.1;" id="l5"><path d="M234,4h1l1,1v1h-2zm-110,3h3v1l-1,1h-1l-1-1zm-9,1h3v1h-3zm149,0h1l1,1v1h-1l-1-1zm85,1h1v2h-1zm-252,1h1v2h-2v-1zm176,0h1v2h-1zm7,2h1v2h-1zm19,1h1v2h-1zm-13,1h1l2,1v2h-1l-2-1zm-212,1h1v1l-1,1h-1v-1zm216,2h1v1l-2,2h-1v-1zm-57,3h2v1h-2zm-64,1h2v1h-2zm-16,2h3v1h-3zm-13,1h4v1h-4zm135,3h1v2h-1zm35,0h1v2h-1zm-202,2h2v1h-2zm75,1h1v4h-1zm-32,3h1l1,1v1l-1,7h-1zm36,0h1v2h-1zm107,3h1v2h-1zm-106,2h1v2h-1zm157,2h1v2h-1z"/><path d="M99,43h2v1h-2zm-47,4h2v1h-2zm98,1h1v2h-1zm191,0h1v2h-1zm-18,1h1v2h-1zm-3,4h1l1,1v1h-1l-1-1zm-131,1h1v4h-1zm176,0h1v2h-1zm-37,5h1l1,1v2h-1l-1-2zm28,0h1l1,1v1h-1l-1-1zm-220,2h2v1l-1,1h-1zm13,4h1v3h-1zm149,0h2v1h-2zm67,1h1l1,1l1,2v1h-1l-1-1l-1-2zm-62,1h2v1h-2zm-162,1h2v1h-2zm156,0h2v1h-2zm-146,2h2v1h-2zm-68,2h2v1l-1,2h-2v-1zm61,2h1v1l-1,1h-1v-1zm17,0h1v2h-1zm-6,1h1l1,1v1h-1l-1-1zm175,2h2v1h-2zm-192,1h2v1h-2zm261,1h1l1,1v1h-1l-1-1zm-201,4h2v1h-2zm-144,3h4v1h-4z"/><path d="M157,86h2v1h-2zm44,0h3v1h-3zm40,0h2v1h-2zm149,0h1l1,1l1,2v1h-1l-1-1l-1-2zm-215,1h1l2,1v1h-4v-1zm52,1h1l3,1v1h-4zm35,0h1l2,1v1h-3zm-64,1h1l1,1v1h-2zm74,0h2v2h-2zm17,0h2v1h-2zm84,0h1l1,1v1h-1l-1-1zm-18,1h2v1h-2zm-63,1h1v2h-1zm-61,1h3v1h-3zm42,0h2v1h-2zm26,0h3v1h-3zm29,1h2v1h-2zm3,1h1l1,1v1h-1l-1-1zm-165,1h1v2h-1zm184,0h1v2h-1zm-86,1h2v1h-2zm10,0h1l1,1v1h-1l-1-1zm31,0h2v1h-2zm22,0h2v1h-2zm-168,1h1v2h-1zm-128,1h1l1,1v1h-1l-1-1zm319,0h1l1,2v1h-1l-1-1z"/><path d="M138,99h3v1h-2v2h-2v-1zm4,0h5v1h-5zm160,0h2v1h-2zm40,0h2l1,1v1h-1l-2-1zm35,0h2l2,2v1h-1l-1-1v-1h-2zm17,0h2v1h-2zm-40,1h1v1l-1,1h-1v-1zm72,0h1l1,1v2h-1l-1-2zm-53,1h1v2h-1zm-334,1h1v2h-1zm339,1h1v2h-1zm-25,2h2v1h-2zm40,0h2v1h-2zm47,0h1l1,1v1h-1l-1-1zm-301,1h2v1h-2zm-101,2h1v2h-1zm378,0h1l1,1v1h-2zm32,0h1l1,1v1h-1l-1-1zm-64,1h1v2h-1zm-278,2h1l1,1v1h-1l-1-1zm327,1h1v2h-1zm11,0h2v2h-1l-1-1zm-412,5h1v2h-1zm113,1h2v1h-2zm-116,2h1l1,1v1h-2zm437,1h1v2h-1zm-422,3h1v4h-1z"/><path d="M366,124h1v2h-1zm-190,1h1l1,1v1h-1l-1-1zm-144,2h1v1l-1,1h-1v-1zm87,0h1l1,1v1h-1l-1-1zm350,0h1v1h-1l1,1v1h-1l-1-1v-1zm-318,1h2v1h-2zm319,7h1v10h-1zm-89,5h2v1h-2zm-341,1h1v2h-1zm221,0h1v2h-1zm143,0h1l2,1v1h-2l-1-1zm80,0h1v2h-1zm-391,1h1v2h-1zm273,0h1v2h-1zm107,4h1v2h-1zm-447,1h1v2h-1zm464,0h2v1h-2zm-201,1h2v1h-2zm206,1h1l2,1v1h-2l-1-1zm-43,1h1v2h-1zm-61,1h2l1,1v1h-1l-2-1zm-363,1h2v1h-2zm284,0h1l1,1v1h-1l-1-1zm103,2h1l1,1v1h-2zm79,0h1v2h-3v-1zm-73,1h1v2h-1z"/><path d="M365,157h1v2h-1zm69,1h1l1,1v1h-1l-1-1zm43,0h1v2h-1zm-39,1h1l1,1v1h-1l-1-1zm-413,1h2v1h-2zm324,0h1l1,1v1h-2zm93,0h1v2h-1zm50,1h1v2h-2v-1zm-38,3h1v2h-1zm5,2h1v2h-1zm37,0h2v1h-2zm-474,2h2v1h-2zm412,0h2v1h-2zm-381,4h1v1l-1,2h-1v-2zm31,2h1v2h-2v-1zm8,0h2l1,1v1h-2l-1-1zm8,1h1v2h-1zm-52,1h1v1l-1,1h-1v2h-1v-2zm138,1h1l2,1l1,1v1h-1l-2-1l-1-1zm223,0h1v2h-1zm-343,2h2v1l-1,1l-2,1h-1v-2zm44,0h2v2h-1l-1-1zm18,1h1l2,2v1h-1l-2-2zm262,1h1v1l-1,1h-1v-1zm-272,2h1v2h-1z"/><path d="M497,187h1l1,1v1h-1l-1-1zm-406,3h1v2h-2v-1zm34,0h1l1,1v1h-1l-1-1zm289,0h1v3h-1zm6,0h2v1l-1,1h-1zm20,1h3v1l-2,1h-1zm-391,1h1v1l-1,1h-1v-1zm310,1h2v1l-1,1h-1zm87,0h1v2h-1zm-356,1h1v3h-1zm-44,2h2v1h-2zm430,0h2v1h-2zm-268,2h1v2h-1zm222,0h1v3h-1zm40,0h2v1h-2zm-426,1h2v1h-2zm23,0h2v1h-2zm42,1h2l1,1v1h-1l-2-1zm302,0h1v1l-1,1h-1v-1zm-349,1h1v1l-2,2h-1v-1zm311,0h2v1h-2zm25,0h1v1l-1,1h-1v-1zm29,1h1l1,2v1l-1,8h-1zm3,0h1v2h-1zm-322,1h2v1l-1,1h-1z"/><path d="M442,204h1v1l-1,1h-1v-1zm-371,1h1l1,1v2h-1l-1-2zm300,0h2v1h-2zm25,0h3v1h-3zm-340,1h4v1h-4zm54,0h1v1l-1,1h-1v-1zm300,0h1c0,2,1,1,2,1v1l-1,1h-1l-1-1zm37,0h1v1l-1,1h-1v-1zm3,0h1l2,2v1h-1l-2-2zm-72,2h2v1h-2zm-315,1h2v1h-2zm-47,1h2v1l-2,2h-2v-1zm82,0h1v1l-1,1h-1v-1zm53,0h4v1h-4zm109,0h2v1h-2zm-184,1h1v1l-1,1h-1v-1zm278,0h1v2h-1zm46,0h2v1h-2zm82,0h2v1h-2zm-404,1h1v1h-1l1,1v1h-1l-1-1v-1zm60,0h1l1,1v1h-1l-1-1zm323,0h1l1,1l1,3v1h-1l-2-1zm-313,1h2v1h-2z"/><path d="M183,213h4v1h-4zm5,0h2v1h-2zm202,2h2v1h-2zm-377,1h2v1h-2zm291,0h2v1h-2zm120,0h1v1l-1,1h-1v-1zm12,0h1v1l-2,2h-1v2h-1v-2zm-85,1h2v1h-2zm-268,1h1v1l-1,1h-1v-1zm13,0h1l3,3v1h-1l-3-3zm19,1h1v1l-1,1h-1v-1zm7,0h1v2h-1zm81,0h1v2h-1zm237,0h2v1h-2zm-377,1h2v3h-1l-1-2zm29,0h2v1l-2,1h-1v-1zm316,0h1v2l-1,1h-1v-1zm9,0h2v1h-2zm35,0h2v1h-2zm27,0h1v3h-1zm-384,3h1v1l-1,1h-2v-1zm134,0h4v1h-4zm130,0h4v1h-4zm45,0h2v2h-1l-1-1z"/><path d="M412,223h1v1l-1,2h-1l-1-1v-1zm16,0h1v1l-1,1h-1v-1zm14,0h1l2,1v2h-2l-1-2zm7,0h2v1h-2zm44,0h2l1,1v1h-1l-2-1zm-477,1h2v1h-2zm100,0h1v1l-1,1h-1v-1zm125,0h2v1h-2zm214,0h1v1l-1,1h-1v-1zm-397,1h2v1h-2zm42,0h1v1l-1,1h-1v-1zm144,0h2v1h-2zm146,0h1v4h-1zm-340,1h1v3h-1zm182,0h3v1h-3zm24,0h3v1c-2,0-1,1-1,2h-2zm140,0h1v6h-1zm12,0h1v2h-1zm55,0h1v3h-1zm-344,1h1v3h-1zm338,1h1v3h-1zm-162,2h3v1h-3zm25,0h4v1h-4zm159,1h1v3h-1z"/><path d="M15,232h1l2,2v1h-1l-2-2zm64,0h1l1,1v1l1-1h1v2l-1,1h-1c0-2-1-2-2-3zm21,0h1c0,2,1,1,2,1v1l-1,1h-3v-1zm213,0h2v1h-2zm115,0h1v1l-1,1h-2v-1zm-103,1h3v1h-3zm89,0h1l1,1v1h-1l-1-1zm51,0h1v1l-2,2h-1v-1zm-347,1h2v1h-2zm-91,1h1v2h-1zm26,1h2v1h-2zm6,0h2v1h-2zm48,0h1v2l-1,1h-1v-2zm45,0h1v7h-1zm47,0h7l1,1v1h-1l-7-1zm23,1h3v1h-3zm185,0h1l1,2v1h-1l-1-1zm37,0h1v2h-1zm-377,1h1v2h-1zm26,0h2v1l-1,1h-1zm385,0h1v1l-1,1h-1v-1z"/><path d="M249,239h3v1h-3zm143,0h2v1h-2zm-253,1h1v1l-1,1h-1v-1zm129,0h4v1h-4zm-157,1h1v2h-1zm225,1h1v2h-1zm64,0h1v3h-1zm-48,1h4v1h-4zm-287,1h1v2h-1zm86,0h1l1,1v3l-1,1h-1zm-34,1h1l2,1v1h-2l-1-1zm255,0h6v1h-6zm-332,1h2v1h-2zm363,1h1l1,1v1h-1l-1-1zm-283,1h2v1h-2zm298,0h2v1h-2zm-319,1h2v1h-2zm169,0h13v2h-1l-12-1zm66,1h7v1h-7zm62,0h2v1h-2zm39,0h1l2,1v1h-2l-1-1z"/><path d="M456,250h1v2h-2v-1zm-361,3h4l1,1v1h-1l-4-1zm20,0h2v1h-2zm355,2h2v1h-2zm-389,1h2v2h-1l-1-1zm323,1h1l1,2v1h-1l-1-1zm11,0h1v2h-2v-1zm32,0h1v3h-1zm-381,1h1l1,1v1h-1l-1-1zm21,1h1v2h-1zm18,0h1v2h-1zm-54,3h1l1,1v1h-1l-1-1zm24,0h1v2h-1zm360,0h1v2h-1zm6,0h1v2h-1zm-363,1h1v2h-1zm7,0h2v1h-2zm353,0h1v2h-1zm-19,1h1l1,1v1h-1l-1-1zm-360,5h1v2h-1zm340,1h1v2h-1zm-337,1h1v2h-1zm53,0h1v2h-1zm294,4h1v2h-1zm3,1h1v2h-1zm3,1h1l1,1v1h-1l-1-1zm-333,1h1v2h-1zm351,0h1v2h-1zm-13,1h2v1h-2z"/></g><g style="fill:rgb(28,28,28);fill-rule:evenodd;stroke:rgb(28,28,28);stroke-width:0.1;" id="l6"><path d="M166,5h8v1h-8zm70,0h3v1h-3zm57,10h1v1l-1,1h-1v-1zm16,2h1v2h-1zm-7,1h1v2h-1zm-119,2h3v1h-3zm133,1h1v2h-1zm-11,3h1v2h-1zm-149,2h1v2l-1,1h-1v-1zm174,4h1v2h-1zm-26,12h1v2h-1zm30,1h1l1,2v1h-1l-1-1zm-24,3h1v2h-1zm-170,1h1v1l-1,1h-1v-1zm-44,1h2v1l-1,1h-1zm54,8h1v1l-1,1h-1v-1zm202,1h1l1,1v1h-1l-1-1zm-19,6h1l1,2v1h-1l-1-1zm9,0h1l1,1v1h-1l-1-1zm-190,4h2v1h-2zm-3,2h1v2h-1zm238,1h1l1,1v2h-1l-1-2zm-234,2h1l1,1v1h-1l-1-1zm200,0h1l1,1l1,2v1h-1l-1-1l-1-2zm-196,1h1l1,1v1h-1l-1-1z"/><path d="M330,78h1v2h-1zm-145,1h1v3h-1zm-16,2h1l2,2v1h-2l-1-1zm123,0h2v1h-2zm63,0h1l1,1v2h-1l-1-1zm-195,2h2v1h-2zm40,0h2v1h-2zm-165,1h1l7,1l1,1v1h-1l-7-1l-1-1zm327,0h1v2h-1zm-221,1h7v1h-7zm30,0h1l1,1v1l-1,2l-1,1h-1v-2zm16,0h3v1h-3zm43,0h3v1h-3zm179,2h1l1,1v2h-1l-1-1zm-356,2h1l1,1v1h-1l-1-1zm147,1h2v1h-2zm41,0h2v1h-2zm33,0h2v1h-2zm-185,1h1l1,1v2h-1l-1-2zm266,1h1v1l-3,3h-2v-1l2-2zm41,0h2v1h-2z"/><path d="M342,96h1v2h-1zm-50,2h3v1h-3zm40,0h3v1h-3zm55,0h2l1,1v1h-1l-2-1zm-249,4h1v2h-1zm223,0h2v1h-2zm-31,1h2v1h-2zm39,0h3v1h-3zm69,2h2v1h-2zm9,1h1l1,1v1h-1l-1-1zm-400,1h1v1l-1,2h-1v-2zm-16,2h2v1h-2zm392,0h2v1l-2,1h-1v-1zm11,4h2v1h-2zm-8,3h3v1h-3zm-389,2h1v8h-1zm420,2h1l2,2v1h-1l-2-1zm-410,1h2v2h-1l-1-1zm422,2h1l1,1v2h-1l-1-2zm-401,2h1v3h-1zm375,1h1l3,3v1h-1l-3-3zm-395,2h1v2h-2v-1zm73,0h1l1,1v1h-1l-1-1zm-90,1h1v2h-1z"/><path d="M29,130h1v3h-1zm95,3h1l2,1v1h-2l-1-1zm326,0h1l3,3v1l1-1h1v1l-1,1h-1l-4-4zm31,0h1c0,2,1,2,2,3v1h-1l-1-1v-1v2h-1l-1-1v-1zm-434,4h1v1l-1,1h-2v-1zm320,2h1v2h-1zm92,2h1l1,1v1h-1l-1-1zm-372,1h2v1h-2zm15,2h1l1,1v1h-1l-1-1zm173,0h1l1,1v1h-1l-1-1zm150,0h2v2h-1l-1-1zm66,0h1l2,1v1h-2l-1-1zm-385,1h1l1,1v1h-1l-1-1zm57,1h2l1,1v1h-1l-2-1zm3,4h2v1h-2zm223,1h2v1h-2zm-245,7h2l1,1v1h-2v2h-1l-1-1v-1c2,0,1-1,1-2zm210,3h1l1,1v1h-2zm5,1h1v2h-1zm96,3h2v1h-2zm-305,1h1l2,1v1h-2l-1-1z"/><path d="M364,166h1v3h-1zm43,4h1v2h-1zm-286,3h1l1,2v1h-1l-1-1zm35,1h1l2,1v1h-2l-1-1zm264,1h3v1h-3zm12,0h3v1h-3zm-307,1h1l2,2v2h-1c0-2-1-2-2-3zm357,1h1v2h-1zm-437,2h1v2h-2v-1zm318,0h1v1l-1,1h-1v-1zm41,0h1v2h-1zm-14,1h2v1h-2zm97,0h1v2h-1zm-470,1h1v3l-1,1h-1v-1zm145,1h1l2,1v1h-2l-1-1zm-103,1h1v2l-1,1h-1v-1zm443,0h2v2h2v1h-2l-2-2zm-44,1h1l1,1v2h-1l-1-1zm-336,2h1l1,1l1,2v1h-1l-1-1l-1-2zm301,2h1l1,2v1h-3v-1zm-370,1h1v1l-1,1h-2v-1zm31,0h1v1l-1,1h-2v-1z"/><path d="M94,189h1l1,1v1h-1l-1-1zm5,0h1v3h2v1h-2l-1-1zm99,1h1l3,3l1,2v1h-1l-4-4zm232,0h4l1,1v1h-1l-4-1zm42,0h2v1h-2zm-303,1h2l1,1v1h-1l-2-1zm248,0h1v1l-1,1h-2v-1zm85,0h1v2h-1zm-431,1h1v2h-1zm307,1h1v1l-1,1h-1v-1zm-344,3h1v2h-1zm31,0h1v2h-2v-1zm17,0h4v1l-3,1h-1zm10,0h5v1l-5,1h-1v-1zm38,0h1l2,1v2h-1l-2-2zm291,0h3v1h-3zm10,0h3v1l-3,1h-1v-1zm-352,1h1v1l-1,1h-2v-1zm-62,2h1v3h-1zm44,2h1v1l-1,1h-1v-1z"/><path d="M402,201h2v1h-2zm49,0h2v1h-2zm-333,3h3l1,1v1h-4zm312,0h1v3h-1zm-326,1h1v1l-1,1h-2v-1zm-34,1h2v2h-1l-1-1zm176,2h1l1,1v1h-1l-1-1zm-144,1h2v2h-1l-1-1zm290,2h1l1,2v2l-1,1h-1zm-223,1h3v1h-3zm113,1h1l2,1v1h-2l-1-1zm172,0h2v1h-2zm-28,1h1v3h-1zm-329,1h1l1,1v1l-1,1h-1v-1h1l-1-1zm271,0h1v2h-2v-1zm-287,2h2l1,2v1h-1l-1-1v-1l-1,1h-1v-1zm59,0h1v2h-1zm282,0h1v1l-1,1h1l2,1v1h-2l-3-1v-2zm-320,2h2v1h-2zm333,0h1l1,1v1h-2zm-336,1h1l1,1v1l-1,1h-1v-1h1l-1-1z"/><path d="M107,220h1v1l-1,1h-2v-1zm221,0h2v1h-2zm6,0h1l1,1v1h-1l-1-1zm67,0h2v1h-2zm20,1h1c0,2,1,1,2,1v2h-2l-1-1zm12,2h1l1,1v1h-1l-1-1zm-13,1h1l1,1v1h-1l-1-1zm-404,1h2v1l-1,1h-2v-1zm63,1h1v2h-1zm351,0h3v2h-1l-2-1zm-187,1h4v1h-4zm25,0h4v1h-2l2,1v1h-2l-2-2zm-183,1h1l1,1v1h-1l-1-1zm401,0h1v7h-1zm-206,1h5v1h-5zm25,0h5v1h-5zm107,0h1v3h-2v-1zm51,0h1v2h-1zm-99,2h2v1l-1,1h-1zm-36,2h2v1h-2zm96,3h1v1h-1l1,1v1h-1l-1-1v-1z"/><path d="M99,238h1v2h-2v-1zm299,0h2v1h-2zm-304,2h1v2l-1,1h-1v-1zm178,0h3v1h-3zm182,1h1l1,1v1h-2zm6,0h2v1h-2zm-372,1h2l2,2v1h-1l-1-1v-1h-2zm52,0h4v1h-4zm189,0h7v1h-7zm98,0h1v1l-1,1h-1v-1zm-311,1h1v2h-1zm345,0h2v1l-1,1h-1zm-43,1h1v1l-1,1h-1v-1zm1,2h1l1,1v1h-1l-1-1zm-362,3h1l2,1v1h-2l-1-1zm11,0h1v2h-1zm187,0h13v1h-13zm199,2h1v2h-2v-1zm-44,1h1v2h-1zm27,2h3v1h-3zm-323,1h1v2l-1,1h-1v-2zm305,0h2v3h-1l-1-2z"/><path d="M131,256h2v1l-2,1h-1v-1zm-41,2h1v1l-1,1h-1v-1zm17,0h1v2h-1zm278,0h2l1,1v1h-1l-2-1zm-256,2h1v1l-1,1h-2v-1zm288,2h2l1,1v1h-1l-2-1zm-3,1h2l1,1v1h-1l-2-1zm-291,2h1v1l-1,2l-1,1h-1v-1l1-2zm311,13h1v2h-1zm-351,1h2v1h-2zm10,0h2v1h-2z"/></g><g style="fill:rgb(152,152,152);fill-rule:evenodd;stroke:rgb(152,152,152);stroke-width:0.1;" id="l7"><path d="M123,0h1v1l-1,1h-1v-1zm-34,2h2l1,1v1h-2l-1-1zm96,0h1v2h-1zm-89,1h1v2h-1zm35,0h1v2h-1zm41,0h1v1l-1,1h-3v-1zm63,1h2v1h-2zm-61,1h2v1h-2zm-48,3h2v1h-2zm-38,3h1l1,1v1h-1l-1-1zm52,12h2v1h-2zm42,7h1v4h-1zm-40,7h1l1,1v1h-1l-1-1zm42,8h1v2h-1zm-41,5h1l1,1v1h-1l-1-1zm-1,5h1l1,1v1h-1l-1-1zm48,14h1v2h-1zm194,0h1l1,1v1h-1l-1-1zm-241,1h1v1l-1,1h-1v-1zm186,9h1l1,1v1h-1l-1-1zm-129,3h2v1h-2zm162,1h1v1l-1,1h-1v-1zm2,0h1l1,1v1h-1l-1-1zm-216,2h2v1h-2zm-114,1h1v1l-1,1h-1v-1zm5,0h2v1h-2zm255,4h1v1l-1,1h-1v-1zm-249,2h1v1l-2,2h-1v-1z"/><path d="M234,92h1v1l-1,1h-3v-1zm68,0h1v1l-1,1h-1v-1zm-251,2h1v1l-1,1h-1v-1zm214,1h2v1h-2zm99,1h1v1l-1,1h-1v-1zm-29,1h1v2h-1zm-182,1h1l1,1v1h-1l-1-1zm142,0h1v1l-1,1h-1v-1zm108,0h1l1,1v1l-1,1h-1v-1h1l-1-1zm-374,1h1v1l-1,1h-1v-1zm312,1h2v1h-2zm-202,3h1v1l-1,1h-1v-1zm208,1h1v1l-1,1h-1v-1zm18,0h1v1l-1,2h-2v-1zm67,0h1v1l-1,1h-1v-1zm-15,4h2v1h-2zm-51,3h1v2h-1zm-265,2h1l2,2v1h-1l-2-2zm8,0h1l1,1v1h-1l-1-1zm-68,4h1v1l-1,1h-1v-1zm110,9h1v1l-1,1h-1v-1zm43,2h1v1l-1,1h-1v-1zm-166,2h1v3h-1zm445,1h1v1h-1l1,1v1h-1l-1-1v-1z"/><path d="M61,133h1l1,1v1h-1l-1-1zm409,0h1l1,1v1h-1l-1-1zm-414,2h1l1,1v1h-1l-1-1zm175,0h1v1l-1,1h-1v-1zm-201,2h1l1,1v1h-1l-1-1zm12,0h1v1l-1,1h-1v-1zm354,3h2v1h-2zm17,2h2v1h-2zm-310,2h1v1l-1,1h-1v-1zm173,0h1v1l-1,1h-1v-1zm90,14h1v2h2v1h-3zm-264,6h1v1l-1,1h-1v-1zm355,1h1v1l-1,1h-1v-1zm-23,2h2v1h-2zm61,7h1v1l-1,1h-1v-1zm-425,3h1l1,1v1h-1l-1-1zm378,1h1v1l-1,1h-1v-1zm53,1h1v1l-1,1h-1v-1zm-117,8h1v1l-1,1h-1v-1zm79,1h1l2,2v1h-1l-2-2zm-39,1h1l1,1v1h-1l-1-1zm13,0h1v1l-1,1h-2v-1zm-357,1h2l2,1v1h-2l-2-1zm-4,1h2v1l-2,1h-1v-1z"/><path d="M104,192h1l2,1l1,1v1h-1l-2-1l-1-1zm305,0h1l1,1v1l-1,1h-2v-1c2,0,1-1,1-2zm32,0h2l2,1v1h-5v-1zm5,4h1l1,1v1h-1l-1-1zm-15,1h3v1h-3zm-329,1h1v1l-1,1h-1v-1zm300,2h2v1h-2zm71,1h1v1l-1,1h-1v-1zm-20,1h1l2,2v1h-1l-2-2zm-6,1h1v1l-1,1h-1v-1zm-390,4h1l1,1v1h-1l-1-1zm64,1h1l1,1v1h-1v-1l-1,1h-1v-1zm292,0h2v1c-2,0-1,1-1,2h-1l-1-1v-1zm-338,2h1v1l-1,1h-2v-1zm187,0h1v1l-1,1h-3v-1zm-123,2h1v1l-1,1h-1v-1zm214,0h1l1,1v1h-1l-1-1zm38,0h1l1,1l1,2v1h-1l-1-1l-1-2zm113,0h1v1h-1l1,1v1h-1l-1-1v-1zm-364,4h1v1l-1,2h-1v-2z"/><path d="M198,217h1v1l-1,2h-1l-1-1v-1zm231,1h3v1l-1,1h-1v2h-1zm-101,1h2v1h-2zm132,0h1l1,1v1h-1l-1-1zm-63,1h1v1l-1,1h-1v-1zm46,0h2v1l-2,1h-1v-1zm-100,1h1v1l-1,1h-1v-1zm59,0h1v1l-1,1h-2v-1zm-51,1h1v1l-1,1h-1v-1zm104,0h1l2,2v1h-1l-2-2zm-347,1h2v1h-2zm103,1h2v1h-2zm18,0h2v1h-2zm130,0h2v1h-2zm7,0h1v2h-1zm59,0h2v1l-2,1h-1v-1zm25,0h1v1l-1,1h-1v-1zm36,0h1v4h-1zm-406,5h1v2h-1zm398,2h1l1,3v1h-1l-1-1zm-151,1h3v1h-3zm158,0h1v2h-1zm-390,1h3v1l-3,1h-1v-1z"/><path d="M76,234h1l1,1v1h-1l-1-1zm28,0h1v1l-2,2h-1v-1zm80,1h2v1h-2zm208,0h1v1l-1,3h-1v-3zm35,1h1l1,1v1h-1l-1-1zm-342,1h1l1,1v1h-1l-1-1zm114,0h4v1h-4zm-127,1h1v2h-2v-1zm150,0h2v1h-2zm183,0h1l1,1v1h-1l-1-1zm-327,1h1l1,1v1h-1l-1-1zm259,3h2v1h-2zm80,2h1l1,1v1h-1l-1-1zm80,2h1l1,1v1h-1l-1-1zm-417,1h1l1,1v1h-1l-1-1zm38,0h1l1,1v2h-1l-1-2zm65,0h1v1l-1,1h-1v-1zm20,1h4v1h-4zm78,1h7v1h-7zm-27,1h13v1h-13zm-185,1h3l1,1v1h-3l-1-1z"/><path d="M407,251h1l1,1v1h-1l-1-1zm9,1h1l1,2v1h-3l-1-1v-1h1l1,1zm39,0h1v1l-2,2h-1v-1zm-376,2h1l1,1v1h-1l-1-1zm-2,1h1l1,1l1,2v1h-1l-1-1l-1-2zm360,0h1v1l-1,1l-2,1h-1v-1l1-1zm-366,5h2v1h-2zm367,0h1v2h-1zm-355,18h3v1h-3zm9,0h3v1h-3z"/></g><g style="fill:rgb(76,76,76);fill-rule:evenodd;stroke:rgb(76,76,76);stroke-width:0.1;" id="l8"><path d="M265,8h1v1l-1,1h-1v-1zm-192,2h2v1h-2zm31,0h2v1h-2zm140,11h3v1h-3zm9,1h1l1,1v1h-1l-1-1zm-103,2h1v1l-1,1h-1v-1zm-44,8h2v1h-2zm43,1h1l1,1v1l-1,1h-1v-1h1l-1-1zm39,19h2v1l-1,1h-1zm-51,4h2v1h-2zm12,7h1l1,2v2h-1l-1-2zm-110,9h2v1h-2zm120,4h1v2h-1zm201,2h1l2,2v1h-1l-2-2zm-62,2h2v1h-2zm-124,5h2v2h-1l-1-1zm30,1h1v2h-2v-1zm79,7h3v1h-3zm27,0h2v2h-1l-1-1zm-6,6h1v2h-1zm40,0h1v1l-1,1h-1v-1zm-205,1h3v1h-3zm182,1h1l2,1v1h-2l-1-1zm53,0h2v2h-2zm35,0h1v2h-2v-1zm-8,5h2v1h-2z"/><path d="M25,107h1l1,1v1h-1l-1-1zm340,5h1l1,1v2h-2zm-316,1h1l1,1v1h-1l-1-1zm370,1h1l1,1v1h-2zm-382,3h1l1,1v1h-1l-1-1zm411,0h1v2h-1zm-342,5h1v4h-1zm261,7h1v10h-1zm112,2h1l1,1v1h-1l-1-1zm-451,2h2v2h-2zm197,1h1l1,1v1h-2zm145,5h8v1h-8zm-292,1h1l2,1v1h-3zm315,0h1l3,1v1h-4zm-365,2h1v1l-1,1h-2v-1zm-2,3h1v2h-1zm414,2h1v2h-1zm38,4h1v2h-1zm-78,1h2l1,1v1h-1l-2-1zm-83,1h1v2h-1zm145,0h1v2h-1zm23,0h1v2h-1zm17,5h1v2h-2v-1z"/><path d="M420,167h1v2h-1zm-352,11h1v2h-1zm292,11h2v1h-2zm-270,8h1l1,8v12l-1,1h-2v-10zm-26,1h1v1l-2,2h-1v-1zm12,0h1v2h-1zm-45,5h2v1h-2zm397,2h1l1,12v1h-3v-1zm-316,1h1l2,2v1h-1l-2-2zm-72,1h2v1h-2zm315,0h2v1h-2zm-1,3h2v1h-2zm-188,1h2v1h-2zm-113,1h2v2h-1l-1-1zm127,0h2l1,1v1h-3zm237,1h1v1c-1,1,0,1,2,3v1h-1l-3-3v-1zm-365,1h1l1,1v1h-1l-1-1z"/><path d="M483,214h2v1h-2zm-171,3h1l1,1v1h-1l-1-1zm-261,1h2v1h-2zm76,2h1v3h-2v-2zm80,2h1v2h-1zm5,1h2v2h-1l-1-1zm229,0h1l1,1v1h-2zm-369,1h2v2h-2zm147,0h2v1h-2zm230,0h1l1,1v2h-2v-1h1l-1-1zm-45,1h1l1,1v1h-2zm53,1h1v2h-1zm-373,2h1v2h-1zm306,1h1v2h-1zm-338,1h1l1,1v2h-1l-1-2zm273,0h1v2h-1zm15,0h1v2h-1zm76,3h1l1,1v1h-1l-1-1zm-265,2h2v1l-1,7h-1zm-26,2h2v1h-2v2h-1l-1-1v-1zm120,1h2l2,1v1h-4zm196,0h1v2h-1zm-49,2h1v2h-2v-1zm12,0h1l1,1v1h-4v-1z"/><path d="M356,243h4v1l-1,1h-1l-2-1zm77,0h2v1l-1,1h-1zm-351,2h1l1,1v1h-2zm69,0h1v2h-1zm285,0h1v1l-2,2h-2v-1l1-1zm-343,3h2v1h-2zm248,2h6v1h-6zm-265,3h2v1h-2zm376,2h1v1l-1,1h-2v-1zm-29,2h1l2,1v1h-2l-1-1zm-7,3h1l1,1v1h-2zm-329,3h6v1h-6zm-10,14h1v2h-1zm23,0h1l1,1v1h-2z"/></g><g style="fill:rgb(20,20,20);fill-rule:evenodd;stroke:rgb(20,20,20);stroke-width:0.1;" id="l9"><path d="M174,4h2v1h-2zm85,3h1l1,1v1h-1l-1-1zm-140,7h1v2h-2v-1zm-6,8h2v1l-1,1h-2v-1zm-44,1h1v1l-1,1h-2v-1zm-4,4h2v1l-2,1h-1v-1zm217,2h1v3h-1zm22,7h1v2h-1zm20,0h1l1,2v1h-1l-1-1zm-266,1h2v1l-1,2l-2,1h-1v-1l1-1h1zm44,1h2v1h-2zm205,6h1v2h-1zm47,2h1l1,1v2h-1l-1-2zm-41,2h1l1,1v2h-1l-1-2zm-169,2h1v1l-1,1h-1v-1zm-96,4h2v1h-2zm276,2h1l1,1v2h-1l-1-2zm14,4h1v2h-1zm-249,2h1v1l-1,1h-1v-1zm248,4h1l1,1v2h-1l-1-2zm4,3h1l1,1v1h-1l-1-1zm50,4h1l1,1v1h-1l-1-1zm-232,1h2v1h-2zm141,1h2v1l-2,4h-1v-2z"/><path d="M395,76h1l1,1v2h-1l-1-2zm-336,15h1v2h-1zm102,0h2v1h-2zm214,0h1l1,1l1,2v1h-1l-2-2zm43,3h1l1,2v1h-1l-1-1zm-264,4h2v1h-2zm269,1h1l1,1v1h-1l-1-1zm-7,4h2v1h-2zm7,0h2v1l-1,1h-1zm-312,14h1l2,1v1h-2l-1-1zm38,8h2v1h-2zm44,3h1l1,1v1h-1l-1-1zm-156,2h1l1,5v1h-1l-1-1zm5,1h1v2h-1zm58,4h2v1h-2zm141,2h1v2h-1zm237,2h1l2,1v1h-2l-1-1zm-365,8h1l1,1v1h-2zm181,1h1v2h-1zm181,0h4v2h-1l-3-1zm7,1h1v2h-1zm-27,2h1l1,1v1h-1l-1-1zm-320,5h2l4,2l1,1v1h-2l-4-2l-1-1z"/><path d="M174,161h2l1,1v1h-2l-1-1zm-103,16h1v1l-1,1h-2v-1zm88,1h1l1,1v1h-1l-1-1zm337,0h1v2h-1zm-363,6h1l2,2v1h-1l-2-2zm-96,6h1v1l-1,1h-1v-1zm100,0h2v1h-2zm300,1h1l2,1v1h-2l-1-1zm-350,1h2v2h-1l-1-1zm52,1h2v1h-2zm-31,1h1v3h-1zm346,5h1l2,2v1h-1l-2-2zm-386,1h1l2,2v1h-1l-2-1zm149,2h1v2h-1zm-109,5h1v1l-1,1h-1v-1zm13,0h2v1h-2zm282,0h1v2h-2v-1zm40,0h1v2h-2v-1zm14,0h1l1,1v1h-1l-1-1zm-343,3h2v1h-2zm-30,1h1v2h-1zm-11,2h1l2,2v1h-1l-2-2zm390,2h1l1,1v1h-1l-1-1zm-372,7h1v1l-1,1h-1v-1zm408,3h2l1,1v1h-1l-2-1z"/><path d="M423,226h1l1,1v1h-1l-1-1zm-335,3h2v1l-1,1h-1zm344,3h1v2h-2v-1zm-361,1h1v2h-1zm37,1h1v2h-1zm338,0h1v2h-1zm-38,1h1l2,2v1h-1l-2-2zm-324,4h1l1,1v1h-1l-1-1zm321,0h1v2h-1zm39,1h2v2h-1l-1-1zm-328,1h1l2,1v2h-1l-2-1zm-51,6h1l1,1v1h-1l-1-1zm334,3h1l1,1v1h-2zm34,2h1l1,1v3h-1l-1-3zm19,1h1v2h-1zm-49,1h1l1,1v1h-1l-1-1zm-358,2h2l1,1v1h-1l-2-1zm65,0h1v2h-1zm-41,1h1v2h-1zm381,0h2v1l-1,1h-1zm-375,2h1v2h-1zm5,3h2v2h-1l-1-1zm315,5h1l1,1v2h-1l-1-2zm-286,7h1v2h-1zm301,2h2v1h-2z"/></g><g style="fill:rgb(172,172,172);fill-rule:evenodd;stroke:rgb(172,172,172);stroke-width:0.1;" id="l10"><path d="M159,2h2v1h-2zm-53,3h1v1l-1,1h-1v-1zm22,3h2v1h-2zm220,4h1v2h-1zm-164,9h3v1h-3zm46,0h4v1h-4zm-47,5h1v2h-1zm107,2h1v1l-1,1h-1v-1zm57,13h1v1l-1,1h-1v-1zm-297,9h1l1,1v1h-1l-1-1zm317,5h1l1,1v1h-1v-1l-1,1h-1v-1zm-28,7h1l1,1v1h-1l-1-1zm53,13h1l1,1v1h-1l-1-1zm-255,8h1v3h-1zm153,3h1l1,1v1h-1l-1-1zm-236,3h1v1l-1,1h-1v-1zm254,5h1v1l-1,1h-2v-1zm30,9h2v1h-2zm100,3h2v1h-2zm-18,8h2v1h-2zm-387,4h1v2h-1zm405,0h1v2h-1zm-331,7h1v2h-1zm-75,4h1v2h-1zm13,4h1l1,1v1l-1,1h-1v-1h1l-1-1zm46,4h1v1l-1,1h-1v-1zm-55,3h1l1,1v1h-1l-1-1z"/><path d="M406,141h2v1h-2zm-102,9h1v1l-1,1h-1v-1zm158,17h1v1l-1,1h-1v-1zm-60,5h1l1,1v1h-1l-1-1zm-382,2h1v1l-1,1h-1v-1zm372,4h1v1l-1,1h-1v-1zm-7,6h1l1,1v1l-1,1h-1v-1h1l-1-1zm115,0h1l2,2v1h-1l-2-2zm-406,7h2v1h-2zm327,0h4l1,1v1h-1l-4-1zm10,0h2v1h-2zm-415,9h1v2h-1zm89,0h1l1,1v1l-1,1h-1v-1h1l-1-1zm-37,4h1v1l-1,1h-1v-1zm344,0h1l1,1v1h-1l-1-1zm32,0h1l1,1v1l1-1h1v1l-1,1h-3zm-15,1h1v2h-1zm32,3h1v1l-1,1h-1v-1zm-311,3h3v1h-3zm218,1h1l1,1v1h-1l-1-1zm73,0h2v1h-2zm-151,2h2v1h-2zm-237,2h1v2h-1zm65,3h1l1,2v1h-1l-1-1z"/><path d="M404,224h1l1,1v1h-1l-1-1zm41,1h1l1,2v1h-1l-1-1zm56,0h1v1l-1,1h-1v-1zm-232,1h2v1h-2zm160,0h1l2,2v1h-3zm4,1h1v2h-1zm-340,1h1v2h-2v-1zm7,0h1v2h-1zm364,1h1v2h-1zm-184,1h3v1h-3zm25,0h3v1h-3zm117,1h1l1,1v1h-1l-1-1zm-270,1h1v2h-1zm-100,1h1v2h-1zm367,1h1v2h-1zm23,0h1v1l-1,1h-1v-1zm-235,2h2v1h-2zm-154,1h1v2l-1,1h-1v-1zm21,1h1l1,1v1h-1l-1-1zm413,0h1v1l-1,1h-1v-1zm-432,1h1v1l-1,2h-1v-2zm188,0h2v1h-2zm-184,3h1l1,1v1h-1l-1-1zm342,0h4v1l-1,1h-1v2h-1l-1-3zm-262,1h3v1l-3,1h-1v-1z"/><path d="M331,243h2v1h-2zm-254,7h3l1,1v1h-1l-1-1v2h-1l-1-2zm22,0h1v2l-1,1h-1v-1zm-38,4h1l1,1v1h-1l-1-1zm40,2h1v1l-1,1h-1v-1zm348,1h1v1h-1l1,1v1h-1l-1-1v-1zm-5,3h1v1l-1,1h-1v-1zm-13,4h3v1h-3zm22,7h1l1,1v1h-1l-1-1zm-23,7h3v1h-3zm-97,1h46v1h-46z"/></g><g style="fill:rgb(36,36,36);fill-rule:evenodd;stroke:rgb(36,36,36);stroke-width:0.1;" id="l11"><path d="M127,7h2v1h-2zm-57,13h2v1h-2zm161,0h2v1h-2zm41,6h1v2h-1zm82,1h1v2h-1zm-6,15h1v2h-1zm0,11h1l1,1v2h-1l-1-2zm-18,1h1l1,2v1h-1l-1-1zm42,5h1l1,2v1h-1l-1-1zm-285,5h2v1h-2zm260,3h1l1,1l1,2v1h-1l-1-1l-1-2zm-308,6h1v2h-2v-1zm255,3h2v1h-2zm3,11h1v1l-1,1h-1v-1zm-226,1h2v1h-2zm117,1h2v1h-2zm-18,4h1v2l-2,1h-2v-1l1-1zm126,2h2v1h-2zm-262,8h2v1h-2zm31,2h1v2h-1zm312,4h2v1h-2zm-277,2h1v2h-1zm-17,1h1v1l-2,2h-1v-1zm-20,7h1l1,1l1,2v1h-1l-1-1l-1-2zm-23,1h1v2h-2v-1zm436,12h1l1,2v1h-1l-1-1z"/><path d="M81,133h1l2,2v1h-1l-2-2zm17,3h1v2h-1zm384,9h2l1,1v1h-1l-2-1zm-346,3h1l2,1l1,1v1h-1l-2-1l-1-1zm-11,3h1l2,1v2h-1l-2-1zm43,2h1l2,1v1h-2l-1-1zm-36,1h1l2,1v2h-1l-2-1zm236,9h1v3h-1zm-260,3h1v2h-1zm306,2h1v2h-1zm-302,12h2v2h-1l-1-1zm343,2h1v2h-1zm-93,2h1v1l-1,1h-1v-1zm131,0h1l1,1v2h-1l-1-2zm10,3h1v2h-1zm-401,4h3v1l-2,1h-1zm-68,4h2v1h-2zm443,2h1l1,1v2h-1l-1-1zm-403,2h2v1l-2,2h-1v-1zm58,0h2v1h-2zm242,0h2v1l-1,1h-1zm-198,1h1l1,1v1h-1l-1-1zm234,3h2v1h-2zm-6,3h1v2h-1z"/><path d="M233,207h2v1h-2zm159,3h2v1h-2zm17,0h2l1,1v1h-1l-2-1zm-332,2h1v1l-2,2h-1v-1zm338,0h2v1l-2,1h-1v-1zm23,1h1l2,2v1h-1l-2-2zm-40,2h2v1h-2zm-275,1h3v1h-3zm266,3h2v1l-1,1h-1zm-330,1h1v2h-1zm371,0h2v1h-2zm7,2h2v1h-2zm-353,2h2v1h-2zm346,5h1v4h-2v-3zm-358,6h1l1,1v1h-1l-1-1zm333,1h1v2h-1zm40,0h1v2h-1zm-380,1h1v3h-1zm363,1h2v1h-2zm-314,1h1v3h-1zm328,0h2v2h-1l-1-1zm7,1h2v1l-1,2h-1zm-384,2h1v2h-1zm340,0h1v2h-1zm49,1h1v2h-1zm-30,2h1v1l-1,2h-1v-2z"/><path d="M460,245h2v1h-2zm-366,4h1v2h-1zm13,2h1v2h-1zm313,1h2v1h-2zm-37,3h2v1h-2zm30,7h1v2h-1zm-360,2h1l1,1v1h-1l-1-1zm382,0h1v1l-1,1h-1v-1z"/></g><g style="fill:rgb(68,68,68);fill-rule:evenodd;stroke:rgb(68,68,68);stroke-width:0.1;" id="l12"><path d="M283,13h1v2h-1zm-103,7h3l1,1v1h-1l-3-1zm139,3h1v2h-1zm8,5h1v2h-1zm-232,22h2v1h-2zm238,23h1v1l-1,1h-1v-1zm-162,6h1l2,2v1h3v1h-3l-3-3zm183,1h2v1h-2zm-168,8h1l1,1v1h-2zm56,5h2v1h-2zm180,2h1l2,1v1h-2l-1-1zm-372,5h2v1l-2,1h-1v-1zm51,5h1l1,1v1h-1l-1-1zm-42,3h1v2h-1zm379,6h1v2h-1zm-383,26h2v1h-2zm11,0h3v1h-3zm327,11h1v1l-1,1h-1v-1zm15,2h1l1,1v1h-1l-1-1zm-266,6h1v2h-1zm202,0h1l1,1v1h-1l-1-1zm-279,7h1v2h-1zm66,17h1l2,2v1h-1l-2-2zm264,3h1v1l-1,1h-1v-1zm-299,4h1v2h-1zm403,0h1l1,1v1h-1l-1-1z"/><path d="M72,193h1l1,1v1h-1l-1-1zm-4,2h1v2l-1,1h-1v-1zm290,2h2v1h-2zm-342,1h2v1l-1,1h-1zm462,2h2v1h-2zm-258,3h1v2h-1zm136,1h2v1h-2zm103,6h2v1h-2zm-82,1h2v1h-2zm16,0h1l1,1v1h-2zm84,3h1l1,1v1h-1l-1-1zm25,2h1v5h-1zm-465,1h2v1h-2zm447,1h2v1h-2zm-398,1h1v1l-1,1h-1v-1zm280,0h2v1h-2zm79,1h2l1,2v1h-1l-2-2zm-32,3h1v2h-2v-1zm-14,1h1l1,1v1h-1l-1-1zm-311,8h2v1h-2zm39,0h1v1l-1,1h-1v-1zm309,0h1v1l-1,1h-1v-1zm-312,8h2v1h-2zm332,2h1v2h-1zm20,0h2v1h-2zm-21,3h1l1,1v1h-1l-1-1zm-101,6h6v1h-6z"/><path d="M65,256h2v2h-1l-1-1zm338,0h2l1,1v1h-1l-2-1zm-297,4h1l1,1v1h-1l-1-1zm-9,3h1v1l-2,2h-1v-1zm329,1h3v1h-3zm37,1h1v1l-1,1h-1v-1zm-24,12h1v1l-1,1h-1v-1zm-344,1h1v2h-1z"/></g><g style="fill:rgb(132,132,132);fill-rule:evenodd;stroke:rgb(132,132,132);stroke-width:0.1;" id="l13"><path d="M147,0h1v1h-1zm34,0h1v1h-1zm-56,1h1v2h-1zm26,2h1v3h-1zm-50,1h1v2h-1zm-6,6h2v1h-2zm26,3h1v1l-1,1h-1v-1zm67,20h1v2h-1zm-53,34h1l1,1v2h-1l-1-2zm19,5h1v1l-1,1h-1v-1zm23,12h1v1l-1,1h-1v-1zm45,0h1v1l-1,1h-1v-1zm80,4h1v1l-1,1h-1v-1zm-19,2h1v1l-1,1h-1v-1zm64,7h1v1l-1,1h-1v-1zm-25,4h2v1l-2,1h-1v-1zm-233,8h1l1,1v1h-1l-1-1zm354,4h2v1h-2zm-10,3h1v1l-1,1h-1v-1zm51,21h1l2,2v1h-1l-2-2zm-79,4h1v1l-1,1h-1v-1zm-134,2h1v1l-1,1h-1v-1zm-164,2h1v1l-1,1h-1v-1zm373,14h1v1l-1,1h-1v-1zm-404,4h1l1,1v1h-1l-1-1zm-5,1h1l1,1v1h-1l-1-1zm294,3h1v2h-1z"/><path d="M415,191h2l1,1v1h-1l-2-1zm36,9h2v1h-2zm-378,3h1l1,1v1h-1l-1-1zm33,3h1l1,1v1l-1,2h-1v-2l1-1l-1,1h-1v-1zm334,0h1v1l-1,1h-1v-1zm-302,3h1v1l-1,1h-1v-1zm285,1h1v1l-1,1h-1v-1zm-331,7h1l1,1v2h-2v-1l1-1l-1,1h-1v-1zm221,0h2v1l-2,1h-2v-1zm123,1h1l1,1v1h-2zm-35,1h2v1l-2,1h-1v-1zm53,5h1l1,1v1h-1l-1-1zm10,9h1l1,1v1h-1l-1-1zm-303,1h2v1h-2zm-91,1h1l1,2v1h-1l-1-1zm110,1h3v1h-3zm263,0h1v1l-1,1h-1v-1zm-66,2h1v1l-1,1h-1v-1zm54,0h1v1l-1,1h-1v-1zm-321,1h1v1h-1l1,1v1h-1l-1-1v-1zm2,1h1l1,1v1h-1l-1-1zm-22,2h1v1l-1,1h-2v-1z"/><path d="M69,259h2v1h-2zm350,3h1v1l-1,1h-1v-1zm47,0h1v1l-2,2h-1v-1zm-50,1h1v1l-1,1h-1v-1zm-26,1h1l1,1v1h-1l-1-1zm52,12h1l1,1v1h-1l-1-1zm-26,1h1v1l-1,1h-1v-1z"/></g><g style="fill:rgb(164,164,164);fill-rule:evenodd;stroke:rgb(164,164,164);stroke-width:0.1;" id="l14"><path d="M77,2h5v1h-5zm241,20h1v1l-1,1h-1v-1zm-53,2h1v1l-1,1h-1v-1zm-131,54h1v6h-1zm65,11h2v1h-2zm214,1h2v1h-2zm-107,1h1l1,1v1h-1l-1-1zm30,4h2v1h-2zm34,7h3v1h-3zm56,13h2v1h-2zm26,3h1v1l-1,1h-1v-1zm3,20h1l1,1v1h-1l-1-1zm39,8h1l1,1v1h-1l-1-1zm-105,6h3v1h-3zm-22,11h1v3h-1zm125,1h1v1l-1,1h-1v-1zm12,5h1v3h-1zm-52,3h1v1l-1,1h-1v-1zm-291,7h1l1,1v1h-1l-1-1zm32,5h1l1,1v1h-1l-1-1zm187,8h1v1l-1,1h-1v-1zm9,0h1v1l-1,1h-1v-1zm-311,5h1l1,1v1h-1l-1-1zm327,1h1v2h-1zm-226,4h1l1,1v1h-1l-1-1zm127,14h1v1l-1,1h-1v-1z"/><path d="M63,219h2v1h-2zm145,1h1v1l-1,1h-1v-1zm249,0h1l1,1v1h-1l-1-1zm-5,1h1l2,1v1h-2l-1-1zm-27,1h1v1l-1,1h-1v-1zm-354,4h1v1l-1,1h-1v-1zm349,2h1v2h-1zm-9,8h1l1,1v1h-1l-1-1zm-344,1h1v1l-1,1h-1v-1zm45,5h4v1l-1,1l-2,1h-1zm84,7h3v1h-3zm-78,1h1l1,1v1h-1c-1-1-1,0-2,1h-1v-1zm-17,1h1v1l-1,2h-1v-2zm-3,12h2l1,1v1h-1l-2-1z"/></g><g style="fill:rgb(12,12,12);fill-rule:evenodd;stroke:rgb(12,12,12);stroke-width:0.1;" id="l15"><path d="M91,224h1l1,1l1,2v1h-1l-2-2zm90,11h3l2,1v1h-3l-2-1zm-141,9h1v2h-1zm378,11h1l1,1v1h-1l-1-1zm20,0h1l1,2v2h-1v-2h-2v-1z"/></g></svg>